<svg width="82" height="82" viewBox="0 0 82 82" fill="none" xmlns="http://www.w3.org/2000/svg">
	<path
		d="M40.64 81.5601C63.0848 81.5601 81.28 63.3649 81.28 40.92C81.28 18.4752 63.0848 0.280029 40.64 0.280029C18.1951 0.280029 0 18.4752 0 40.92C0 63.3649 18.1951 81.5601 40.64 81.5601Z"
		fill="url(#paint0_linear_7_4)" />
	<path
		d="M40.6399 79.3801C19.4299 79.3801 2.16992 62.12 2.16992 40.91C2.16992 19.7 19.4299 2.44006 40.6399 2.44006C61.8499 2.44006 79.1099 19.7 79.1099 40.91C79.1099 62.12 61.8499 79.3801 40.6399 79.3801Z"
		fill="url(#paint1_linear_7_4)" />
	<path
		d="M40.64 72.85C23.03 72.85 8.70996 58.52 8.70996 40.92C8.70996 23.32 23.04 8.97998 40.64 8.97998C58.24 8.97998 72.5699 23.31 72.5699 40.92C72.5699 58.53 58.24 72.85 40.64 72.85Z"
		fill="url(#paint2_linear_7_4)" />
	<path
		d="M40.6399 70.6801C24.2299 70.6801 10.8799 57.33 10.8799 40.92C10.8799 24.51 24.2299 11.16 40.6399 11.16C57.0499 11.16 70.3999 24.51 70.3999 40.92C70.3999 57.33 57.0499 70.6801 40.6399 70.6801Z"
		fill="url(#paint3_linear_7_4)" />
	<g filter="url(#filter0_d_7_4)">
		<path
			d="M53.1499 61.91C52.4699 61.91 51.8099 61.75 51.1899 61.42L41.0199 56.07C40.8999 56.01 40.7699 55.98 40.6399 55.98C40.5099 55.98 40.3799 56.01 40.2599 56.07L30.0899 61.42C29.4699 61.75 28.8099 61.91 28.1299 61.91C26.8899 61.91 25.7099 61.36 24.8999 60.4C24.0999 59.46 23.7699 58.21 23.9799 56.98L25.9199 45.65C25.9699 45.39 25.8799 45.12 25.6899 44.93L17.4599 36.91C16.2999 35.78 15.8899 34.13 16.3899 32.59C16.8899 31.05 18.1899 29.95 19.7899 29.72L31.1599 28.07C31.4299 28.03 31.6499 27.86 31.7699 27.62L36.8499 17.32C37.5699 15.87 39.0099 14.97 40.6299 14.97C42.2499 14.97 43.6899 15.87 44.4099 17.32L49.4899 27.62C49.6099 27.86 49.8399 28.03 50.0999 28.07L61.4699 29.72C63.0699 29.95 64.3699 31.05 64.8699 32.59C65.3699 34.13 64.9599 35.78 63.7999 36.91L55.5699 44.93C55.3799 45.12 55.2899 45.39 55.3399 45.65L57.2799 56.98C57.4899 58.21 57.1499 59.46 56.3599 60.4C55.5499 61.36 54.3699 61.91 53.1299 61.91H53.1499Z"
			fill="url(#paint4_linear_7_4)" />
		<path
			d="M42.8899 18.07L47.9799 28.37C48.3499 29.11 49.0499 29.63 49.8699 29.75L61.2399 31.4C63.2999 31.7 64.1299 34.23 62.6299 35.69L54.3999 43.71C53.8099 44.29 53.5399 45.12 53.6799 45.94L55.6199 57.26C55.9699 59.31 53.8199 60.8799 51.9699 59.9099L41.7999 54.56C41.0699 54.17 40.1899 54.17 39.4599 54.56L29.2899 59.9099C27.4499 60.8799 25.2899 59.31 25.6399 57.26L27.5799 45.94C27.7199 45.12 27.4499 44.29 26.8599 43.71L18.6299 35.69C17.1399 34.24 17.9599 31.7 20.0199 31.4L31.3899 29.75C32.2099 29.63 32.9199 29.12 33.2799 28.37L38.3699 18.07C39.2899 16.2 41.9599 16.2 42.8799 18.07H42.8899Z"
			fill="url(#paint5_linear_7_4)" />
	</g>
	<defs>
		<filter id="filter0_d_7_4" x="12.7804" y="13.27" width="55.6989" height="53.7399"
			filterUnits="userSpaceOnUse" color-interpolation-filters="sRGB">
			<feFlood flood-opacity="0" result="BackgroundImageFix" />
			<feColorMatrix in="SourceAlpha" type="matrix"
				values="0 0 0 0 0 0 0 0 0 0 0 0 0 0 0 0 0 0 127 0" result="hardAlpha" />
			<feOffset dy="1.7" />
			<feGaussianBlur stdDeviation="1.7" />
			<feColorMatrix type="matrix" values="0 0 0 0 0.5 0 0 0 0 0.5 0 0 0 0 0.5 0 0 0 0.5 0" />
			<feBlend mode="normal" in2="BackgroundImageFix" result="effect1_dropShadow_7_4" />
			<feBlend mode="normal" in="SourceGraphic" in2="effect1_dropShadow_7_4" result="shape" />
		</filter>
		<linearGradient id="paint0_linear_7_4" x1="23.46" y1="4.07003" x2="57.82" y2="77.76"
			gradientUnits="userSpaceOnUse">
			<stop stop-color="#B9B9B9" />
			<stop offset="0.47" stop-color="#808080" />
			<stop offset="1" stop-color="#727272" />
		</linearGradient>
		<linearGradient id="paint1_linear_7_4" x1="24.3799" y1="6.05006" x2="56.8899" y2="75.7801"
			gradientUnits="userSpaceOnUse">
			<stop stop-color="#808080" />
			<stop offset="0.25" stop-color="#B5B5B5" />
			<stop offset="0.6" stop-color="#808080" />
			<stop offset="1" stop-color="#808080" />
		</linearGradient>
		<linearGradient id="paint2_linear_7_4" x1="27.14" y1="11.98" x2="54.13" y2="69.86"
			gradientUnits="userSpaceOnUse">
			<stop stop-color="#808080" />
			<stop offset="1" stop-color="#808080" />
		</linearGradient>
		<linearGradient id="paint3_linear_7_4" x1="28.0599" y1="13.94" x2="53.2099" y2="67.8901"
			gradientUnits="userSpaceOnUse">
			<stop stop-color="#404040" />
			<stop offset="1" stop-color="#404040" />
		</linearGradient>
		<linearGradient id="paint4_linear_7_4" x1="31.8399" y1="18.63" x2="52.3799" y2="62.69"
			gradientUnits="userSpaceOnUse">
			<stop stop-color="#B9B9B9" />
			<stop offset="0.47" stop-color="#808080" />
			<stop offset="1" stop-color="#727272" />
		</linearGradient>
		<linearGradient id="paint5_linear_7_4" x1="32.5499" y1="20.17" x2="51.6598" y2="61.15"
			gradientUnits="userSpaceOnUse">
			<stop stop-color="#808080" />
			<stop offset="0.09" stop-color="#919191" />
			<stop offset="0.2" stop-color="#A5A5A5" />
			<stop offset="0.28" stop-color="#B1B1B1" />
			<stop offset="0.34" stop-color="#B5B5B5" />
			<stop offset="0.68" stop-color="#808080" />
			<stop offset="1" stop-color="#808080" />
		</linearGradient>
	</defs>
</svg>