<svg width="82" height="82" viewBox="0 0 82 82" fill="none" xmlns="http://www.w3.org/2000/svg">
	<path
		d="M40.64 81.28C63.0848 81.28 81.28 63.0849 81.28 40.64C81.28 18.1952 63.0848 0 40.64 0C18.1951 0 0 18.1952 0 40.64C0 63.0849 18.1951 81.28 40.64 81.28Z"
		fill="url(#paint0_linear_7_2)" />
	<path
		d="M40.6399 79.1C19.4299 79.1 2.16992 61.84 2.16992 40.63C2.16992 19.42 19.4299 2.16003 40.6399 2.16003C61.8499 2.16003 79.1099 19.42 79.1099 40.63C79.1099 61.84 61.8499 79.1 40.6399 79.1Z"
		fill="url(#paint1_linear_7_2)" />
	<path
		d="M40.64 72.57C23.03 72.57 8.70996 58.24 8.70996 40.64C8.70996 23.04 23.04 8.70001 40.64 8.70001C58.24 8.70001 72.5699 23.03 72.5699 40.64C72.5699 58.25 58.24 72.57 40.64 72.57Z"
		fill="url(#paint2_linear_7_2)" />
	<path
		d="M40.6399 70.4C24.2299 70.4 10.8799 57.05 10.8799 40.64C10.8799 24.23 24.2299 10.88 40.6399 10.88C57.0499 10.88 70.3999 24.23 70.3999 40.64C70.3999 57.05 57.0499 70.4 40.6399 70.4Z"
		fill="url(#paint3_linear_7_2)" />
	<g filter="url(#filter0_d_7_2)">
		<path
			d="M53.1499 61.63C52.4699 61.63 51.8099 61.47 51.1899 61.14L41.0199 55.79C40.8999 55.73 40.7699 55.7 40.6399 55.7C40.5099 55.7 40.3799 55.73 40.2599 55.79L30.0899 61.14C29.4699 61.47 28.8099 61.63 28.1299 61.63C26.8899 61.63 25.7099 61.0801 24.8999 60.1201C24.0999 59.1801 23.7699 57.93 23.9799 56.7L25.9199 45.3701C25.9699 45.1101 25.8799 44.84 25.6899 44.65L17.4599 36.63C16.2999 35.5 15.8899 33.8501 16.3899 32.3101C16.8899 30.7701 18.1899 29.67 19.7899 29.44L31.1599 27.79C31.4299 27.75 31.6499 27.58 31.7699 27.34L36.8499 17.04C37.5699 15.59 39.0099 14.69 40.6299 14.69C42.2499 14.69 43.6899 15.59 44.4099 17.04L49.4899 27.34C49.6099 27.58 49.8399 27.75 50.0999 27.79L61.4699 29.44C63.0699 29.67 64.3699 30.7701 64.8699 32.3101C65.3699 33.8501 64.9599 35.5 63.7999 36.63L55.5699 44.65C55.3799 44.84 55.2899 45.1101 55.3399 45.3701L57.2799 56.7C57.4899 57.93 57.1499 59.1801 56.3599 60.1201C55.5499 61.0801 54.3699 61.63 53.1299 61.63H53.1499Z"
			fill="url(#paint4_linear_7_2)" />
		<path
			d="M42.8899 17.79L47.9799 28.09C48.3499 28.83 49.0499 29.35 49.8699 29.47L61.2399 31.12C63.2999 31.42 64.1299 33.95 62.6299 35.41L54.3999 43.43C53.8099 44.01 53.5399 44.84 53.6799 45.66L55.6199 56.98C55.9699 59.03 53.8199 60.6 51.9699 59.63L41.7999 54.28C41.0699 53.89 40.1899 53.89 39.4599 54.28L29.2899 59.63C27.4499 60.6 25.2899 59.03 25.6399 56.98L27.5799 45.66C27.7199 44.84 27.4499 44.01 26.8599 43.43L18.6299 35.41C17.1399 33.96 17.9599 31.42 20.0199 31.12L31.3899 29.47C32.2099 29.35 32.9199 28.84 33.2799 28.09L38.3699 17.79C39.2899 15.92 41.9599 15.92 42.8799 17.79H42.8899Z"
			fill="url(#paint5_linear_7_2)" />
	</g>
	<defs>
		<filter id="filter0_d_7_2" x="12.7804" y="12.99" width="55.6989" height="53.74"
			filterUnits="userSpaceOnUse" color-interpolation-filters="sRGB">
			<feFlood flood-opacity="0" result="BackgroundImageFix" />
			<feColorMatrix in="SourceAlpha" type="matrix"
				values="0 0 0 0 0 0 0 0 0 0 0 0 0 0 0 0 0 0 127 0" result="hardAlpha" />
			<feOffset dy="1.7" />
			<feGaussianBlur stdDeviation="1.7" />
			<feColorMatrix type="matrix" values="0 0 0 0 1 0 0 0 0 0.701961 0 0 0 0 0 0 0 0 0.5 0" />
			<feBlend mode="normal" in2="BackgroundImageFix" result="effect1_dropShadow_7_2" />
			<feBlend mode="normal" in="SourceGraphic" in2="effect1_dropShadow_7_2" result="shape" />
		</filter>
		<linearGradient id="paint0_linear_7_2" x1="23.46" y1="3.79" x2="57.82" y2="77.48"
			gradientUnits="userSpaceOnUse">
			<stop stop-color="#FFFF72" />
			<stop offset="0.47" stop-color="#FFDC00" />
			<stop offset="1" stop-color="#E38C00" />
		</linearGradient>
		<linearGradient id="paint1_linear_7_2" x1="24.3799" y1="5.77003" x2="56.8899" y2="75.5"
			gradientUnits="userSpaceOnUse">
			<stop stop-color="#FFDC00" />
			<stop offset="0.25" stop-color="#FFFF6B" />
			<stop offset="0.6" stop-color="#FFDC00" />
			<stop offset="1" stop-color="#FFA500" />
		</linearGradient>
		<linearGradient id="paint2_linear_7_2" x1="27.14" y1="11.7" x2="54.13" y2="69.58"
			gradientUnits="userSpaceOnUse">
			<stop stop-color="#FF9000" />
			<stop offset="1" stop-color="#FFC600" />
		</linearGradient>
		<linearGradient id="paint3_linear_7_2" x1="28.0599" y1="13.66" x2="53.2099" y2="67.61"
			gradientUnits="userSpaceOnUse">
			<stop stop-color="#FFC600" />
			<stop offset="1" stop-color="#FF9000" />
		</linearGradient>
		<linearGradient id="paint4_linear_7_2" x1="31.8399" y1="18.35" x2="52.3799" y2="62.41"
			gradientUnits="userSpaceOnUse">
			<stop stop-color="#FFFF72" />
			<stop offset="0.47" stop-color="#FFDC00" />
			<stop offset="1" stop-color="#E38C00" />
		</linearGradient>
		<linearGradient id="paint5_linear_7_2" x1="32.5499" y1="19.89" x2="51.6598" y2="60.87"
			gradientUnits="userSpaceOnUse">
			<stop stop-color="#FFDC00" />
			<stop offset="0.09" stop-color="#FFE723" />
			<stop offset="0.2" stop-color="#FFF44A" />
			<stop offset="0.28" stop-color="#FFFC62" />
			<stop offset="0.34" stop-color="#FFFF6B" />
			<stop offset="0.68" stop-color="#FFDC00" />
			<stop offset="1" stop-color="#FFA500" />
		</linearGradient>
	</defs>
</svg>