<svg width="299" height="88" viewBox="0 0 299 88" fill="none" xmlns="http://www.w3.org/2000/svg">
	<mask id="path-1-outside-1_10_328" maskUnits="userSpaceOnUse" x="2" y="0" width="297" height="51"
		fill="black">
		<rect fill="white" x="2" width="297" height="51" />
		<path
			d="M11.75 39.5C11.875 39.5833 12.2083 39.7292 12.75 39.9375C13.3125 40.1458 14.0521 40.3542 14.9688 40.5625C15.8854 40.75 16.8958 40.8438 18 40.8438C20.1667 40.8438 22 40.3854 23.5 39.4688C25 38.5521 25.75 37.2812 25.75 35.6562C25.75 34.6771 25.4167 33.8542 24.75 33.1875C24.1042 32.5208 23.2708 31.9688 22.25 31.5312C21.25 31.0729 19.7917 30.5 17.875 29.8125C15.0625 28.8333 12.7396 27.8646 10.9062 26.9062C9.07292 25.9479 7.47917 24.5625 6.125 22.75C4.79167 20.9375 4.125 18.5833 4.125 15.6875C4.125 12.8333 4.82292 10.3854 6.21875 8.34375C7.63542 6.28125 9.57292 4.72917 12.0312 3.6875C14.4896 2.64583 17.2708 2.125 20.375 2.125C22.5 2.125 24.6042 2.3125 26.6875 2.6875C28.7917 3.0625 30.5208 3.45833 31.875 3.875C33.25 4.27083 34.1146 4.54167 34.4688 4.6875L34.125 16.3125H28.25L26.6562 10.875C26.4896 10.8333 26.125 10.7396 25.5625 10.5938C25 10.4479 24.3021 10.3021 23.4688 10.1562C22.6354 9.98958 21.8229 9.90625 21.0312 9.90625C18.8646 9.90625 17.1875 10.3333 16 11.1875C14.8125 12.0417 14.2188 13.1354 14.2188 14.4688C14.2188 15.8438 14.8542 16.9271 16.125 17.7188C17.4167 18.4896 19.4479 19.3646 22.2188 20.3438C25.0312 21.3229 27.3438 22.2812 29.1562 23.2188C30.9896 24.1562 32.5521 25.5 33.8438 27.25C35.1562 29 35.8125 31.2396 35.8125 33.9688C35.8125 37.0938 35.0625 39.7812 33.5625 42.0312C32.0625 44.2604 30.0104 45.9583 27.4062 47.125C24.8021 48.2708 21.8438 48.8438 18.5312 48.8438C16.4062 48.8438 14.2812 48.6562 12.1562 48.2812C10.0521 47.9271 8.30208 47.5625 6.90625 47.1875C5.51042 46.7917 4.625 46.5312 4.25 46.4062V34.125H10.7812L11.75 39.5ZM70.9688 11.125C70.8021 11.0833 70.4062 10.9792 69.7812 10.8125C69.1562 10.6458 68.3125 10.4896 67.25 10.3438C66.1875 10.1979 65.0417 10.125 63.8125 10.125C60.3958 10.125 57.7812 11.4271 55.9688 14.0312C54.1562 16.6146 53.25 20.5312 53.25 25.7812C53.25 30.8229 54.1875 34.5417 56.0625 36.9375C57.9375 39.3125 60.625 40.5 64.125 40.5C66 40.5 67.8438 40.1771 69.6562 39.5312C71.4688 38.8646 73.0208 38.1354 74.3125 37.3438C75.625 36.5521 76.2812 36.1146 76.2812 36.0312L79.8125 41.7812C79.8125 41.9062 79 42.5938 77.375 43.8438C75.75 45.0729 73.6979 46.2083 71.2188 47.25C68.7396 48.2708 66.0104 48.7812 63.0312 48.7812C56.5104 48.7812 51.4688 46.8542 47.9062 43C44.3438 39.125 42.5625 33.5 42.5625 26.125C42.5625 21.1667 43.4479 16.8854 45.2188 13.2812C46.9896 9.67708 49.4896 6.91667 52.7188 5C55.9688 3.08333 59.7708 2.125 64.125 2.125C66.4375 2.125 68.6875 2.35417 70.875 2.8125C73.0625 3.25 74.9688 3.73958 76.5938 4.28125C78.2188 4.80208 79.0312 5.08333 79.0312 5.125L78.7188 17.2812H72.4375L70.9688 11.125ZM83.9688 42.5625L88.75 40.625V10.5625L83.9688 8.625V3.1875L98.6875 2.875H103.531C108.865 2.875 112.969 3.97917 115.844 6.1875C118.74 8.375 120.188 11.625 120.188 15.9375C120.188 18.8333 119.542 21.2917 118.25 23.3125C116.979 25.3125 115.208 26.8854 112.938 28.0312C114 29.2604 114.896 30.6458 115.625 32.1875L119.938 40.9688L124.281 42.5625V48H112.438L107.062 36.1562C106.25 34.3229 105.604 33.0312 105.125 32.2812C104.667 31.5312 104.135 31.0104 103.531 30.7188C102.948 30.4271 102.073 30.2812 100.906 30.2812H98.6875V40.625L103.281 42.5625V48H83.9688V42.5625ZM102.312 23.5625C104.833 23.5625 106.792 22.9792 108.188 21.8125C109.604 20.625 110.312 18.9688 110.312 16.8438C110.312 15.0104 109.74 13.5104 108.594 12.3438C107.448 11.1562 105.896 10.5625 103.938 10.5625H98.6875V23.5625H102.312ZM172.469 48H152.094V42.5625L156.906 40.8438L155.375 36.1562H141.156L139.562 40.7812L144.562 42.5625V48H125.219V42.5625L129.906 40.7812L143.969 3.0625L154.219 2.875L167.969 40.7812L172.469 42.5625V48ZM148.469 14.1562L143.406 29.3125H153.25L148.469 14.1562ZM183.125 10.5625H177.031L175.438 16.625H169.531V2.875H206.656V16.625H200.719L199.125 10.5625H193.031V40.625L199.125 42.5625V48H177.031V42.5625L183.125 40.625V10.5625ZM237.281 11.125C237.115 11.0833 236.719 10.9792 236.094 10.8125C235.469 10.6458 234.625 10.4896 233.562 10.3438C232.5 10.1979 231.354 10.125 230.125 10.125C226.708 10.125 224.094 11.4271 222.281 14.0312C220.469 16.6146 219.562 20.5312 219.562 25.7812C219.562 30.8229 220.5 34.5417 222.375 36.9375C224.25 39.3125 226.938 40.5 230.438 40.5C232.312 40.5 234.156 40.1771 235.969 39.5312C237.781 38.8646 239.333 38.1354 240.625 37.3438C241.938 36.5521 242.594 36.1146 242.594 36.0312L246.125 41.7812C246.125 41.9062 245.312 42.5938 243.688 43.8438C242.062 45.0729 240.01 46.2083 237.531 47.25C235.052 48.2708 232.323 48.7812 229.344 48.7812C222.823 48.7812 217.781 46.8542 214.219 43C210.656 39.125 208.875 33.5 208.875 26.125C208.875 21.1667 209.76 16.8854 211.531 13.2812C213.302 9.67708 215.802 6.91667 219.031 5C222.281 3.08333 226.083 2.125 230.438 2.125C232.75 2.125 235 2.35417 237.188 2.8125C239.375 3.25 241.281 3.73958 242.906 4.28125C244.531 4.80208 245.344 5.08333 245.344 5.125L245.031 17.2812H238.75L237.281 11.125ZM250.281 42.5625L255.062 40.625V10.5625L250.281 8.625V3.1875L270.125 2.875V8.625L265 10.5625V20.8125H281.75V10.5625L276.625 8.625V3.1875L296.469 2.875V8.625L291.688 10.5625V40.625L296.469 42.5625V48H276.625V42.5625L281.75 40.625V28.4688H265V40.625L270.125 42.5625V48H250.281V42.5625Z" />
	</mask>
	<path
		d="M11.75 39.5C11.875 39.5833 12.2083 39.7292 12.75 39.9375C13.3125 40.1458 14.0521 40.3542 14.9688 40.5625C15.8854 40.75 16.8958 40.8438 18 40.8438C20.1667 40.8438 22 40.3854 23.5 39.4688C25 38.5521 25.75 37.2812 25.75 35.6562C25.75 34.6771 25.4167 33.8542 24.75 33.1875C24.1042 32.5208 23.2708 31.9688 22.25 31.5312C21.25 31.0729 19.7917 30.5 17.875 29.8125C15.0625 28.8333 12.7396 27.8646 10.9062 26.9062C9.07292 25.9479 7.47917 24.5625 6.125 22.75C4.79167 20.9375 4.125 18.5833 4.125 15.6875C4.125 12.8333 4.82292 10.3854 6.21875 8.34375C7.63542 6.28125 9.57292 4.72917 12.0312 3.6875C14.4896 2.64583 17.2708 2.125 20.375 2.125C22.5 2.125 24.6042 2.3125 26.6875 2.6875C28.7917 3.0625 30.5208 3.45833 31.875 3.875C33.25 4.27083 34.1146 4.54167 34.4688 4.6875L34.125 16.3125H28.25L26.6562 10.875C26.4896 10.8333 26.125 10.7396 25.5625 10.5938C25 10.4479 24.3021 10.3021 23.4688 10.1562C22.6354 9.98958 21.8229 9.90625 21.0312 9.90625C18.8646 9.90625 17.1875 10.3333 16 11.1875C14.8125 12.0417 14.2188 13.1354 14.2188 14.4688C14.2188 15.8438 14.8542 16.9271 16.125 17.7188C17.4167 18.4896 19.4479 19.3646 22.2188 20.3438C25.0312 21.3229 27.3438 22.2812 29.1562 23.2188C30.9896 24.1562 32.5521 25.5 33.8438 27.25C35.1562 29 35.8125 31.2396 35.8125 33.9688C35.8125 37.0938 35.0625 39.7812 33.5625 42.0312C32.0625 44.2604 30.0104 45.9583 27.4062 47.125C24.8021 48.2708 21.8438 48.8438 18.5312 48.8438C16.4062 48.8438 14.2812 48.6562 12.1562 48.2812C10.0521 47.9271 8.30208 47.5625 6.90625 47.1875C5.51042 46.7917 4.625 46.5312 4.25 46.4062V34.125H10.7812L11.75 39.5ZM70.9688 11.125C70.8021 11.0833 70.4062 10.9792 69.7812 10.8125C69.1562 10.6458 68.3125 10.4896 67.25 10.3438C66.1875 10.1979 65.0417 10.125 63.8125 10.125C60.3958 10.125 57.7812 11.4271 55.9688 14.0312C54.1562 16.6146 53.25 20.5312 53.25 25.7812C53.25 30.8229 54.1875 34.5417 56.0625 36.9375C57.9375 39.3125 60.625 40.5 64.125 40.5C66 40.5 67.8438 40.1771 69.6562 39.5312C71.4688 38.8646 73.0208 38.1354 74.3125 37.3438C75.625 36.5521 76.2812 36.1146 76.2812 36.0312L79.8125 41.7812C79.8125 41.9062 79 42.5938 77.375 43.8438C75.75 45.0729 73.6979 46.2083 71.2188 47.25C68.7396 48.2708 66.0104 48.7812 63.0312 48.7812C56.5104 48.7812 51.4688 46.8542 47.9062 43C44.3438 39.125 42.5625 33.5 42.5625 26.125C42.5625 21.1667 43.4479 16.8854 45.2188 13.2812C46.9896 9.67708 49.4896 6.91667 52.7188 5C55.9688 3.08333 59.7708 2.125 64.125 2.125C66.4375 2.125 68.6875 2.35417 70.875 2.8125C73.0625 3.25 74.9688 3.73958 76.5938 4.28125C78.2188 4.80208 79.0312 5.08333 79.0312 5.125L78.7188 17.2812H72.4375L70.9688 11.125ZM83.9688 42.5625L88.75 40.625V10.5625L83.9688 8.625V3.1875L98.6875 2.875H103.531C108.865 2.875 112.969 3.97917 115.844 6.1875C118.74 8.375 120.188 11.625 120.188 15.9375C120.188 18.8333 119.542 21.2917 118.25 23.3125C116.979 25.3125 115.208 26.8854 112.938 28.0312C114 29.2604 114.896 30.6458 115.625 32.1875L119.938 40.9688L124.281 42.5625V48H112.438L107.062 36.1562C106.25 34.3229 105.604 33.0312 105.125 32.2812C104.667 31.5312 104.135 31.0104 103.531 30.7188C102.948 30.4271 102.073 30.2812 100.906 30.2812H98.6875V40.625L103.281 42.5625V48H83.9688V42.5625ZM102.312 23.5625C104.833 23.5625 106.792 22.9792 108.188 21.8125C109.604 20.625 110.312 18.9688 110.312 16.8438C110.312 15.0104 109.74 13.5104 108.594 12.3438C107.448 11.1562 105.896 10.5625 103.938 10.5625H98.6875V23.5625H102.312ZM172.469 48H152.094V42.5625L156.906 40.8438L155.375 36.1562H141.156L139.562 40.7812L144.562 42.5625V48H125.219V42.5625L129.906 40.7812L143.969 3.0625L154.219 2.875L167.969 40.7812L172.469 42.5625V48ZM148.469 14.1562L143.406 29.3125H153.25L148.469 14.1562ZM183.125 10.5625H177.031L175.438 16.625H169.531V2.875H206.656V16.625H200.719L199.125 10.5625H193.031V40.625L199.125 42.5625V48H177.031V42.5625L183.125 40.625V10.5625ZM237.281 11.125C237.115 11.0833 236.719 10.9792 236.094 10.8125C235.469 10.6458 234.625 10.4896 233.562 10.3438C232.5 10.1979 231.354 10.125 230.125 10.125C226.708 10.125 224.094 11.4271 222.281 14.0312C220.469 16.6146 219.562 20.5312 219.562 25.7812C219.562 30.8229 220.5 34.5417 222.375 36.9375C224.25 39.3125 226.938 40.5 230.438 40.5C232.312 40.5 234.156 40.1771 235.969 39.5312C237.781 38.8646 239.333 38.1354 240.625 37.3438C241.938 36.5521 242.594 36.1146 242.594 36.0312L246.125 41.7812C246.125 41.9062 245.312 42.5938 243.688 43.8438C242.062 45.0729 240.01 46.2083 237.531 47.25C235.052 48.2708 232.323 48.7812 229.344 48.7812C222.823 48.7812 217.781 46.8542 214.219 43C210.656 39.125 208.875 33.5 208.875 26.125C208.875 21.1667 209.76 16.8854 211.531 13.2812C213.302 9.67708 215.802 6.91667 219.031 5C222.281 3.08333 226.083 2.125 230.438 2.125C232.75 2.125 235 2.35417 237.188 2.8125C239.375 3.25 241.281 3.73958 242.906 4.28125C244.531 4.80208 245.344 5.08333 245.344 5.125L245.031 17.2812H238.75L237.281 11.125ZM250.281 42.5625L255.062 40.625V10.5625L250.281 8.625V3.1875L270.125 2.875V8.625L265 10.5625V20.8125H281.75V10.5625L276.625 8.625V3.1875L296.469 2.875V8.625L291.688 10.5625V40.625L296.469 42.5625V48H276.625V42.5625L281.75 40.625V28.4688H265V40.625L270.125 42.5625V48H250.281V42.5625Z"
		fill="url(#paint0_linear_10_328)" />
	<path
		d="M11.75 39.5L9.78171 39.8547L9.93264 40.6921L10.6406 41.1641L11.75 39.5ZM12.75 39.9375L12.032 41.8042L12.0437 41.8087L12.0554 41.813L12.75 39.9375ZM14.9688 40.5625L14.5255 42.5128L14.5467 42.5176L14.568 42.5219L14.9688 40.5625ZM23.5 39.4688L22.4571 37.7622L23.5 39.4688ZM24.75 33.1875L23.3135 34.5791L23.3246 34.5905L23.3358 34.6017L24.75 33.1875ZM22.25 31.5312L21.4167 33.3494L21.4393 33.3597L21.4622 33.3695L22.25 31.5312ZM17.875 29.8125L18.5503 27.9299L18.5414 27.9268L18.5326 27.9237L17.875 29.8125ZM6.125 22.75L4.51396 23.9351L4.51835 23.9411L4.52279 23.9471L6.125 22.75ZM6.21875 8.34375L4.57018 7.2114L4.56772 7.21499L6.21875 8.34375ZM26.6875 2.6875L26.3332 4.65587L26.3366 4.65648L26.6875 2.6875ZM31.875 3.875L31.2868 5.78656L31.3042 5.79191L31.3217 5.79695L31.875 3.875ZM34.4688 4.6875L36.4679 4.74661L36.5087 3.36458L35.2302 2.83814L34.4688 4.6875ZM34.125 16.3125V18.3125H36.0667L36.1241 16.3716L34.125 16.3125ZM28.25 16.3125L26.3307 16.875L26.7521 18.3125H28.25V16.3125ZM26.6562 10.875L28.5755 10.3125L28.2532 9.21267L27.1413 8.93471L26.6562 10.875ZM23.4688 10.1562L23.0765 12.1174L23.1002 12.1221L23.124 12.1263L23.4688 10.1562ZM16.125 17.7188L15.0675 19.4163L15.0837 19.4264L15.1001 19.4362L16.125 17.7188ZM22.2188 20.3438L21.5524 22.2295L21.5612 22.2326L22.2188 20.3438ZM29.1562 23.2188L28.2374 24.9952L28.2457 24.9994L29.1562 23.2188ZM33.8438 27.25L32.2346 28.4377L32.2392 28.4439L32.2437 28.45L33.8438 27.25ZM33.5625 42.0312L35.2218 43.1478L35.2266 43.1407L33.5625 42.0312ZM27.4062 47.125L28.2117 48.9557L28.2239 48.9502L27.4062 47.125ZM12.1562 48.2812L12.5038 46.3117L12.496 46.3103L12.4882 46.309L12.1562 48.2812ZM6.90625 47.1875L6.3606 49.1116L6.37394 49.1154L6.38734 49.119L6.90625 47.1875ZM4.25 46.4062H2.25V47.8478L3.61754 48.3036L4.25 46.4062ZM4.25 34.125V32.125H2.25V34.125H4.25ZM10.7812 34.125L12.7495 33.7703L12.453 32.125H10.7812V34.125ZM11.75 39.5L10.6406 41.1641C10.8651 41.3137 11.1264 41.4317 11.2921 41.5042C11.4976 41.5941 11.7475 41.6947 12.032 41.8042L12.75 39.9375L13.468 38.0708C13.2109 37.9719 13.0232 37.8955 12.8954 37.8396C12.8315 37.8116 12.7943 37.7939 12.7772 37.7854C12.7503 37.7719 12.7903 37.7898 12.8594 37.8359L11.75 39.5ZM12.75 39.9375L12.0554 41.813C12.7323 42.0637 13.5655 42.2946 14.5255 42.5128L14.9688 40.5625L15.412 38.6122C14.5387 38.4138 13.8927 38.228 13.4446 38.062L12.75 39.9375ZM14.9688 40.5625L14.568 42.5219C15.6376 42.7407 16.7846 42.8438 18 42.8438V40.8438V38.8438C17.0071 38.8438 16.1333 38.7593 15.3695 38.6031L14.9688 40.5625ZM18 40.8438V42.8438C20.4493 42.8438 22.6632 42.324 24.5429 41.1753L23.5 39.4688L22.4571 37.7622C21.3368 38.4468 19.884 38.8438 18 38.8438V40.8438ZM23.5 39.4688L24.5429 41.1753C26.5788 39.9311 27.75 38.044 27.75 35.6562H25.75H23.75C23.75 36.5185 23.4212 37.173 22.4571 37.7622L23.5 39.4688ZM25.75 35.6562H27.75C27.75 34.1695 27.2218 32.8309 26.1642 31.7733L24.75 33.1875L23.3358 34.6017C23.6115 34.8775 23.75 35.1847 23.75 35.6562H25.75ZM24.75 33.1875L26.1865 31.7959C25.3237 30.9053 24.2554 30.2148 23.0378 29.693L22.25 31.5312L21.4622 33.3695C22.2862 33.7227 22.8846 34.1364 23.3135 34.5791L24.75 33.1875ZM22.25 31.5312L23.0833 29.7131C22.0053 29.219 20.4837 28.6235 18.5503 27.9299L17.875 29.8125L17.1997 31.6951C19.0996 32.3765 20.4947 32.9268 21.4167 33.3494L22.25 31.5312ZM17.875 29.8125L18.5326 27.9237C15.776 26.964 13.5509 26.0319 11.8328 25.1338L10.9062 26.9062L9.97974 28.6787C11.9283 29.6973 14.349 30.7027 17.2174 31.7013L17.875 29.8125ZM10.9062 26.9062L11.8328 25.1338C10.289 24.3269 8.91911 23.1483 7.72721 21.5529L6.125 22.75L4.52279 23.9471C6.03922 25.9767 7.8568 27.569 9.97974 28.6787L10.9062 26.9062ZM6.125 22.75L7.73604 21.5649C6.71953 20.183 6.125 18.2797 6.125 15.6875H4.125H2.125C2.125 18.887 2.86381 21.692 4.51396 23.9351L6.125 22.75ZM4.125 15.6875H6.125C6.125 13.1722 6.73486 11.1325 7.86978 9.47251L6.21875 8.34375L4.56772 7.21499C2.91098 9.63829 2.125 12.4944 2.125 15.6875H4.125ZM6.21875 8.34375L7.86732 9.4761C9.05343 7.74926 10.6797 6.43232 12.8115 5.529L12.0312 3.6875L11.251 1.846C8.46612 3.02601 6.2174 4.81324 4.57018 7.2114L6.21875 8.34375ZM12.0312 3.6875L12.8115 5.529C14.9862 4.60754 17.4958 4.125 20.375 4.125V2.125V0.125C17.0459 0.125 13.993 0.684127 11.251 1.846L12.0312 3.6875ZM20.375 2.125V4.125C22.3817 4.125 24.3672 4.302 26.3332 4.65587L26.6875 2.6875L27.0418 0.719133C24.8411 0.323005 22.6183 0.125 20.375 0.125V2.125ZM26.6875 2.6875L26.3366 4.65648C28.3965 5.02358 30.0389 5.40259 31.2868 5.78656L31.875 3.875L32.4632 1.96344C31.0027 1.51407 29.1869 1.10142 27.0384 0.718524L26.6875 2.6875ZM31.875 3.875L31.3217 5.79695C32.7315 6.20278 33.4771 6.44208 33.7073 6.53686L34.4688 4.6875L35.2302 2.83814C34.7521 2.64125 33.7685 2.33888 32.4283 1.95305L31.875 3.875ZM34.4688 4.6875L32.4696 4.62839L32.1259 16.2534L34.125 16.3125L36.1241 16.3716L36.4679 4.74661L34.4688 4.6875ZM34.125 16.3125V14.3125H28.25V16.3125V18.3125H34.125V16.3125ZM28.25 16.3125L30.1693 15.75L28.5755 10.3125L26.6562 10.875L24.737 11.4375L26.3307 16.875L28.25 16.3125ZM26.6562 10.875L27.1413 8.93471C26.9847 8.89557 26.6291 8.80415 26.0644 8.65776L25.5625 10.5938L25.0606 12.5297C25.6209 12.675 25.9944 12.7711 26.1712 12.8153L26.6562 10.875ZM25.5625 10.5938L26.0644 8.65776C25.4325 8.49393 24.6782 8.33751 23.8135 8.18619L23.4688 10.1562L23.124 12.1263C23.926 12.2667 24.5675 12.4019 25.0606 12.5297L25.5625 10.5938ZM23.4688 10.1562L23.861 8.19509C22.9079 8.00447 21.9639 7.90625 21.0312 7.90625V9.90625V11.9062C21.682 11.9062 22.3629 11.9747 23.0765 12.1174L23.4688 10.1562ZM21.0312 9.90625V7.90625C18.6372 7.90625 16.488 8.37282 14.8321 9.56389L16 11.1875L17.1679 12.8111C17.887 12.2938 19.092 11.9062 21.0312 11.9062V9.90625ZM16 11.1875L14.8321 9.56389C13.1812 10.7514 12.2188 12.4224 12.2188 14.4688H14.2188H16.2188C16.2188 13.8484 16.4438 13.3319 17.1679 12.8111L16 11.1875ZM14.2188 14.4688H12.2188C12.2188 16.6049 13.2729 18.2984 15.0675 19.4163L16.125 17.7188L17.1825 16.0212C16.4354 15.5558 16.2188 15.0826 16.2188 14.4688H14.2188ZM16.125 17.7188L15.1001 19.4362C16.5674 20.3118 18.751 21.2395 21.5524 22.2295L22.2188 20.3438L22.8851 18.458C20.1448 17.4897 18.266 16.6674 17.1499 16.0013L16.125 17.7188ZM22.2188 20.3438L21.5612 22.2326C24.3208 23.1933 26.5379 24.1161 28.2374 24.9952L29.1562 23.2188L30.0751 21.4423C28.1496 20.4464 25.7417 19.4525 22.8763 18.4549L22.2188 20.3438ZM29.1562 23.2188L28.2457 24.9994C29.7879 25.7881 31.1161 26.9224 32.2346 28.4377L33.8438 27.25L35.4529 26.0623C33.988 24.0776 32.1913 22.5244 30.0668 21.4381L29.1562 23.2188ZM33.8438 27.25L32.2437 28.45C33.2381 29.7758 33.8125 31.5635 33.8125 33.9688H35.8125H37.8125C37.8125 30.9157 37.0744 28.2242 35.4438 26.05L33.8438 27.25ZM35.8125 33.9688H33.8125C33.8125 36.762 33.1468 39.0492 31.8984 40.9218L33.5625 42.0312L35.2266 43.1407C36.9782 40.5133 37.8125 37.4255 37.8125 33.9688H35.8125ZM33.5625 42.0312L31.9032 40.9147C30.6251 42.8141 28.8736 44.2761 26.5886 45.2998L27.4062 47.125L28.2239 48.9502C31.1473 47.6406 33.4999 45.7067 35.2218 43.1478L33.5625 42.0312ZM27.4062 47.125L26.6008 45.2944C24.2887 46.3117 21.6116 46.8438 18.5312 46.8438V48.8438V50.8438C22.0759 50.8438 25.3154 50.23 28.2117 48.9556L27.4062 47.125ZM18.5312 48.8438V46.8438C16.5246 46.8438 14.5158 46.6667 12.5038 46.3117L12.1562 48.2812L11.8087 50.2508C14.0467 50.6458 16.2879 50.8438 18.5312 50.8438V48.8438ZM12.1562 48.2812L12.4882 46.309C10.4204 45.9609 8.7379 45.6087 7.42516 45.256L6.90625 47.1875L6.38734 49.119C7.86627 49.5163 9.68377 49.8932 11.8243 50.2535L12.1562 48.2812ZM6.90625 47.1875L7.4519 45.2634C6.04235 44.8636 5.20526 44.6165 4.88246 44.5089L4.25 46.4062L3.61754 48.3036C4.04474 48.446 4.97849 48.7197 6.3606 49.1116L6.90625 47.1875ZM4.25 46.4062H6.25V34.125H4.25H2.25V46.4062H4.25ZM4.25 34.125V36.125H10.7812V34.125V32.125H4.25V34.125ZM10.7812 34.125L8.81296 34.4797L9.78171 39.8547L11.75 39.5L13.7183 39.1453L12.7495 33.7703L10.7812 34.125ZM70.9688 11.125L72.9142 10.6609L72.6323 9.47932L71.4538 9.18471L70.9688 11.125ZM55.9688 14.0312L57.606 15.18L57.6103 15.1738L55.9688 14.0312ZM56.0625 36.9375L54.4875 38.1701L54.4927 38.1768L56.0625 36.9375ZM69.6562 39.5312L70.3276 41.4152L70.3371 41.4118L70.3467 41.4083L69.6562 39.5312ZM74.3125 37.3438L73.2795 35.6312L73.2734 35.6348L73.2674 35.6385L74.3125 37.3438ZM76.2812 36.0312L77.9855 34.9846L74.2812 28.9529V36.0312H76.2812ZM79.8125 41.7812H81.8125V41.2161L81.5168 40.7346L79.8125 41.7812ZM77.375 43.8438L78.5815 45.4388L78.588 45.4339L78.5944 45.429L77.375 43.8438ZM71.2188 47.25L71.9802 49.0994L71.9869 49.0966L71.9935 49.0939L71.2188 47.25ZM47.9062 43L46.4339 44.3536L46.4376 44.3575L47.9062 43ZM45.2188 13.2812L43.4237 12.3993L45.2188 13.2812ZM52.7188 5L51.7028 3.27726L51.6979 3.28014L52.7188 5ZM70.875 2.8125L70.4649 4.76999L70.4738 4.77187L70.4828 4.77366L70.875 2.8125ZM76.5938 4.28125L75.9613 6.17862L75.9723 6.18228L75.9833 6.18581L76.5938 4.28125ZM79.0312 5.125L81.0306 5.1764L81.0312 5.1507V5.125H79.0312ZM78.7188 17.2812V19.2812H80.668L80.7181 17.3326L78.7188 17.2812ZM72.4375 17.2812L70.4921 17.7454L70.8585 19.2812H72.4375V17.2812ZM70.9688 11.125L71.4538 9.18471C71.3056 9.14766 70.9266 9.04803 70.2966 8.88003L69.7812 10.8125L69.2659 12.745C69.8859 12.9103 70.2986 13.019 70.4837 13.0653L70.9688 11.125ZM69.7812 10.8125L70.2966 8.88003C69.5567 8.68274 68.6207 8.51314 67.522 8.36233L67.25 10.3438L66.978 12.3252C68.0043 12.466 68.7558 12.6089 69.2659 12.745L69.7812 10.8125ZM67.25 10.3438L67.522 8.36233C66.3574 8.20249 65.1198 8.125 63.8125 8.125V10.125V12.125C64.9636 12.125 66.0176 12.1933 66.978 12.3252L67.25 10.3438ZM63.8125 10.125V8.125C59.8005 8.125 56.5462 9.70051 54.3272 12.8887L55.9688 14.0312L57.6103 15.1738C59.0163 13.1537 60.9911 12.125 63.8125 12.125V10.125ZM55.9688 14.0312L54.3315 12.8826C52.1726 15.9596 51.25 20.3668 51.25 25.7812H53.25H55.25C55.25 20.6957 56.1399 17.2695 57.606 15.1799L55.9688 14.0312ZM53.25 25.7812H51.25C51.25 31.0005 52.2076 35.257 54.4875 38.1701L56.0625 36.9375L57.6375 35.7049C56.1674 33.8264 55.25 30.6454 55.25 25.7812H53.25ZM56.0625 36.9375L54.4927 38.1768C56.8093 41.1111 60.1209 42.5 64.125 42.5V40.5V38.5C61.1291 38.5 59.0657 37.5139 57.6323 35.6982L56.0625 36.9375ZM64.125 40.5V42.5C66.2348 42.5 68.3053 42.1358 70.3276 41.4152L69.6562 39.5312L68.9849 37.6473C67.3822 38.2184 65.7652 38.5 64.125 38.5V40.5ZM69.6562 39.5312L70.3467 41.4083C72.2509 40.7079 73.928 39.9252 75.3576 39.049L74.3125 37.3438L73.2674 35.6385C72.1137 36.3457 70.6866 37.0213 68.9658 37.6542L69.6562 39.5312ZM74.3125 37.3438L75.3455 39.0563C76.0083 38.6565 76.5317 38.3305 76.8985 38.086C77.076 37.9676 77.2537 37.844 77.4015 37.7267C77.4691 37.6731 77.5829 37.5798 77.6972 37.4601C77.752 37.4027 77.8547 37.2899 77.9559 37.1325C78.0219 37.0299 78.2812 36.6222 78.2812 36.0312H76.2812H74.2812C74.2812 35.7145 74.3568 35.4656 74.4153 35.3152C74.4757 35.16 74.5442 35.0426 74.5912 34.9695C74.6821 34.8281 74.7695 34.7341 74.8038 34.6982C74.877 34.6214 74.9293 34.5821 74.9149 34.5936C74.8986 34.6065 74.8303 34.6574 74.6797 34.7578C74.3902 34.9508 73.9292 35.2393 73.2795 35.6312L74.3125 37.3438ZM76.2812 36.0312L74.577 37.0779L78.1082 42.8279L79.8125 41.7812L81.5168 40.7346L77.9855 34.9846L76.2812 36.0312ZM79.8125 41.7812H77.8125C77.8125 41.3087 77.9836 40.9751 78.0285 40.8886C78.0954 40.7601 78.1603 40.6729 78.1857 40.6396C78.2387 40.5703 78.2717 40.5405 78.2459 40.5663C78.2035 40.6087 78.1012 40.7032 77.9112 40.8639C77.5413 41.1769 76.9615 41.6385 76.1556 42.2585L77.375 43.8438L78.5944 45.429C79.4135 44.799 80.0524 44.2919 80.495 43.9174C80.7113 43.7343 80.9137 43.5554 81.0744 43.3947C81.1501 43.3189 81.2593 43.2051 81.3631 43.0694C81.414 43.0029 81.4979 42.8869 81.5774 42.734C81.6351 42.6231 81.8125 42.2694 81.8125 41.7812H79.8125ZM77.375 43.8438L76.1685 42.2487C74.711 43.3511 72.8153 44.4098 70.444 45.4061L71.2188 47.25L71.9935 49.0939C74.5805 48.0068 76.789 46.7947 78.5815 45.4388L77.375 43.8438ZM71.2188 47.25L70.4573 45.4006C68.2451 46.3115 65.7782 46.7812 63.0312 46.7812V48.7812V50.7812C66.2426 50.7812 69.234 50.2302 71.9802 49.0994L71.2188 47.25ZM63.0312 48.7812V46.7812C56.9232 46.7812 52.4706 44.9915 49.3749 41.6425L47.9062 43L46.4376 44.3575C50.4669 48.7168 56.0976 50.7812 63.0312 50.7812V48.7812ZM47.9062 43L49.3786 41.6464C46.2708 38.266 44.5625 33.2001 44.5625 26.125H42.5625H40.5625C40.5625 33.7999 42.4167 39.984 46.4339 44.3536L47.9062 43ZM42.5625 26.125H44.5625C44.5625 21.4021 45.4057 17.4361 47.0138 14.1632L45.2188 13.2812L43.4237 12.3993C41.4901 16.3347 40.5625 20.9312 40.5625 26.125H42.5625ZM45.2188 13.2812L47.0138 14.1632C48.6258 10.8823 50.8678 8.42438 53.7396 6.71986L52.7188 5L51.6979 3.28014C48.1113 5.40895 45.3534 8.47192 43.4237 12.3993L45.2188 13.2812ZM52.7188 5L53.7347 6.72273C56.6321 5.01401 60.0723 4.125 64.125 4.125V2.125V0.125C59.4693 0.125 55.3054 1.15266 51.7028 3.27727L52.7188 5ZM64.125 2.125V4.125C66.3045 4.125 68.4168 4.34089 70.4649 4.76999L70.875 2.8125L71.2851 0.855006C68.9582 0.367448 66.5705 0.125 64.125 0.125V2.125ZM70.875 2.8125L70.4828 4.77366C72.6118 5.19946 74.4343 5.66963 75.9613 6.17862L76.5938 4.28125L77.2262 2.38388C75.5032 1.80954 73.5132 1.30054 71.2672 0.851339L70.875 2.8125ZM76.5938 4.28125L75.9833 6.18581C76.7924 6.44515 77.384 6.63997 77.7677 6.77278C77.9639 6.84072 78.0818 6.8842 78.1402 6.90742C78.1769 6.922 78.1514 6.91332 78.0987 6.887C78.0821 6.87869 77.986 6.83129 77.8692 6.7489C77.8162 6.71155 77.6817 6.6138 77.5397 6.45548C77.4663 6.37362 77.3541 6.23506 77.2537 6.04076C77.1536 5.84702 77.0312 5.53098 77.0312 5.125H79.0312H81.0312C81.0312 4.35987 80.6059 3.88333 80.518 3.7853C80.3729 3.62344 80.2336 3.52169 80.1743 3.47986C80.0447 3.38851 79.9296 3.33029 79.8876 3.30929C79.7842 3.25757 79.6825 3.21602 79.6176 3.19024C79.4729 3.13272 79.2861 3.06553 79.0761 2.99284C78.6473 2.84441 78.0201 2.63819 77.2042 2.37669L76.5938 4.28125ZM79.0312 5.125L77.0319 5.0736L76.7194 17.2299L78.7188 17.2812L80.7181 17.3326L81.0306 5.1764L79.0312 5.125ZM78.7188 17.2812V15.2812H72.4375V17.2812V19.2812H78.7188V17.2812ZM72.4375 17.2812L74.3829 16.8171L72.9142 10.6609L70.9688 11.125L69.0233 11.5891L70.4921 17.7454L72.4375 17.2812ZM83.9688 42.5625L83.2176 40.7089L81.9688 41.215V42.5625H83.9688ZM88.75 40.625L89.5011 42.4786L90.75 41.9725V40.625H88.75ZM88.75 10.5625H90.75V9.21499L89.5011 8.70891L88.75 10.5625ZM83.9688 8.625H81.9688V9.97251L83.2176 10.4786L83.9688 8.625ZM83.9688 3.1875L83.9263 1.18795L81.9688 1.22951V3.1875H83.9688ZM98.6875 2.875V0.875H98.6663L98.645 0.875451L98.6875 2.875ZM115.844 6.1875L114.625 7.7736L114.632 7.77851L114.638 7.78336L115.844 6.1875ZM118.25 23.3125L116.565 22.2354L116.562 22.2399L118.25 23.3125ZM112.938 28.0312L112.037 26.2457L109.748 27.4002L111.424 29.3392L112.938 28.0312ZM115.625 32.1875L113.817 33.0426L113.823 33.0559L113.83 33.0691L115.625 32.1875ZM119.938 40.9688L118.142 41.8504L118.496 42.5701L119.249 42.8464L119.938 40.9688ZM124.281 42.5625H126.281V41.1659L124.97 40.6849L124.281 42.5625ZM124.281 48V50H126.281V48H124.281ZM112.438 48L110.616 48.8265L111.149 50H112.438V48ZM107.062 36.1562L105.234 36.9666L105.238 36.9747L105.241 36.9828L107.062 36.1562ZM105.125 32.2812L103.418 33.3242L103.429 33.3412L103.44 33.358L105.125 32.2812ZM103.531 30.7188L102.637 32.5076L102.649 32.5138L102.662 32.5199L103.531 30.7188ZM98.6875 30.2812V28.2812H96.6875V30.2812H98.6875ZM98.6875 40.625H96.6875V41.9521L97.9103 42.4678L98.6875 40.625ZM103.281 42.5625H105.281V41.2354L104.058 40.7197L103.281 42.5625ZM103.281 48V50H105.281V48H103.281ZM83.9688 48H81.9688V50H83.9688V48ZM108.188 21.8125L109.47 23.3471L109.472 23.3452L108.188 21.8125ZM108.594 12.3438L107.155 13.7325L107.161 13.7389L107.167 13.7452L108.594 12.3438ZM98.6875 10.5625V8.5625H96.6875V10.5625H98.6875ZM98.6875 23.5625H96.6875V25.5625H98.6875V23.5625ZM83.9688 42.5625L84.7199 44.4161L89.5011 42.4786L88.75 40.625L87.9989 38.7714L83.2176 40.7089L83.9688 42.5625ZM88.75 40.625H90.75V10.5625H88.75H86.75V40.625H88.75ZM88.75 10.5625L89.5011 8.70891L84.7199 6.77141L83.9688 8.625L83.2176 10.4786L87.9989 12.4161L88.75 10.5625ZM83.9688 8.625H85.9688V3.1875H83.9688H81.9688V8.625H83.9688ZM83.9688 3.1875L84.0112 5.18705L98.73 4.87455L98.6875 2.875L98.645 0.875451L83.9263 1.18795L83.9688 3.1875ZM98.6875 2.875V4.875H103.531V2.875V0.875H98.6875V2.875ZM103.531 2.875V4.875C108.623 4.875 112.23 5.934 114.625 7.7736L115.844 6.1875L117.062 4.6014C113.707 2.02433 109.106 0.875 103.531 0.875V2.875ZM115.844 6.1875L114.638 7.78336C116.936 9.51934 118.188 12.1191 118.188 15.9375H120.188H122.188C122.188 11.1309 120.543 7.23066 117.049 4.59164L115.844 6.1875ZM120.188 15.9375H118.188C118.188 18.5315 117.612 20.5974 116.565 22.2354L118.25 23.3125L119.935 24.3896C121.472 21.9859 122.188 19.1352 122.188 15.9375H120.188ZM118.25 23.3125L116.562 22.2399C115.499 23.9133 114.01 25.2499 112.037 26.2457L112.938 28.0312L113.838 29.8168C116.407 28.521 118.46 26.7117 119.938 24.3851L118.25 23.3125ZM112.938 28.0312L111.424 29.3392C112.363 30.4248 113.161 31.6564 113.817 33.0426L115.625 32.1875L117.433 31.3324C116.63 29.6353 115.637 28.096 114.451 26.7233L112.938 28.0312ZM115.625 32.1875L113.83 33.0691L118.142 41.8504L119.938 40.9688L121.733 40.0871L117.42 31.3059L115.625 32.1875ZM119.938 40.9688L119.249 42.8464L123.592 44.4401L124.281 42.5625L124.97 40.6849L120.626 39.0911L119.938 40.9688ZM124.281 42.5625H122.281V48H124.281H126.281V42.5625H124.281ZM124.281 48V46H112.438V48V50H124.281V48ZM112.438 48L114.259 47.1735L108.884 35.3297L107.062 36.1562L105.241 36.9828L110.616 48.8265L112.438 48ZM107.062 36.1562L108.891 35.3459C108.075 33.5054 107.378 32.0927 106.81 31.2045L105.125 32.2812L103.44 33.358C103.83 33.9698 104.425 35.1404 105.234 36.9666L107.062 36.1562ZM105.125 32.2812L106.832 31.2383C106.234 30.2604 105.443 29.4209 104.401 28.9176L103.531 30.7188L102.662 32.5199C102.828 32.5999 103.099 32.8021 103.418 33.3242L105.125 32.2812ZM103.531 30.7188L104.426 28.9299C103.424 28.4293 102.175 28.2812 100.906 28.2812V30.2812V32.2812C101.971 32.2812 102.471 32.4249 102.637 32.5076L103.531 30.7188ZM100.906 30.2812V28.2812H98.6875V30.2812V32.2812H100.906V30.2812ZM98.6875 30.2812H96.6875V40.625H98.6875H100.688V30.2812H98.6875ZM98.6875 40.625L97.9103 42.4678L102.504 44.4053L103.281 42.5625L104.058 40.7197L99.4647 38.7822L98.6875 40.625ZM103.281 42.5625H101.281V48H103.281H105.281V42.5625H103.281ZM103.281 48V46H83.9688V48V50H103.281V48ZM83.9688 48H85.9688V42.5625H83.9688H81.9688V48H83.9688ZM102.312 23.5625V25.5625C105.123 25.5625 107.597 24.9124 109.47 23.3471L108.188 21.8125L106.905 20.2779C105.986 21.046 104.544 21.5625 102.312 21.5625V23.5625ZM108.188 21.8125L109.472 23.3452C111.413 21.7185 112.312 19.4615 112.312 16.8438H110.312H108.312C108.312 18.476 107.795 19.5315 106.903 20.2798L108.188 21.8125ZM110.312 16.8438H112.312C112.312 14.5554 111.58 12.5296 110.021 10.9423L108.594 12.3438L107.167 13.7452C107.9 14.4912 108.312 15.4654 108.312 16.8438H110.312ZM108.594 12.3438L110.033 10.955C108.44 9.30455 106.329 8.5625 103.938 8.5625V10.5625V12.5625C105.463 12.5625 106.455 13.008 107.155 13.7325L108.594 12.3438ZM103.938 10.5625V8.5625H98.6875V10.5625V12.5625H103.938V10.5625ZM98.6875 10.5625H96.6875V23.5625H98.6875H100.688V10.5625H98.6875ZM98.6875 23.5625V25.5625H102.312V23.5625V21.5625H98.6875V23.5625ZM172.469 48V50H174.469V48H172.469ZM152.094 48H150.094V50H152.094V48ZM152.094 42.5625L151.421 40.679L150.094 41.1531V42.5625H152.094ZM156.906 40.8438L157.579 42.7272L159.412 42.0727L158.807 40.2227L156.906 40.8438ZM155.375 36.1562L157.276 35.5352L156.826 34.1562H155.375V36.1562ZM141.156 36.1562V34.1562H139.73L139.265 35.5047L141.156 36.1562ZM139.562 40.7812L137.672 40.1297L137.027 42.001L138.891 42.6653L139.562 40.7812ZM144.562 42.5625H146.562V41.1519L145.234 40.6785L144.562 42.5625ZM144.562 48V50H146.562V48H144.562ZM125.219 48H123.219V50H125.219V48ZM125.219 42.5625L124.508 40.6929L123.219 41.183V42.5625H125.219ZM129.906 40.7812L130.617 42.6508L131.464 42.3289L131.78 41.4799L129.906 40.7812ZM143.969 3.0625L143.932 1.06283L142.571 1.08774L142.095 2.36383L143.969 3.0625ZM154.219 2.875L156.099 2.19301L155.611 0.84919L154.182 0.875335L154.219 2.875ZM167.969 40.7812L166.089 41.4632L166.396 42.3095L167.233 42.6409L167.969 40.7812ZM172.469 42.5625H174.469V41.2032L173.205 40.7029L172.469 42.5625ZM148.469 14.1562L150.376 13.5546L148.523 7.68069L146.572 13.5226L148.469 14.1562ZM143.406 29.3125L141.509 28.6789L140.63 31.3125H143.406V29.3125ZM153.25 29.3125V31.3125H155.978L155.157 28.7108L153.25 29.3125ZM172.469 48V46H152.094V48V50H172.469V48ZM152.094 48H154.094V42.5625H152.094H150.094V48H152.094ZM152.094 42.5625L152.766 44.446L157.579 42.7272L156.906 40.8438L156.234 38.9603L151.421 40.679L152.094 42.5625ZM156.906 40.8438L158.807 40.2227L157.276 35.5352L155.375 36.1562L153.474 36.7773L155.005 41.4648L156.906 40.8438ZM155.375 36.1562V34.1562H141.156V36.1562V38.1562H155.375V36.1562ZM141.156 36.1562L139.265 35.5047L137.672 40.1297L139.562 40.7812L141.453 41.4328L143.047 36.8078L141.156 36.1562ZM139.562 40.7812L138.891 42.6653L143.891 44.4465L144.562 42.5625L145.234 40.6785L140.234 38.8972L139.562 40.7812ZM144.562 42.5625H142.562V48H144.562H146.562V42.5625H144.562ZM144.562 48V46H125.219V48V50H144.562V48ZM125.219 48H127.219V42.5625H125.219H123.219V48H125.219ZM125.219 42.5625L125.929 44.4321L130.617 42.6508L129.906 40.7812L129.196 38.9117L124.508 40.6929L125.219 42.5625ZM129.906 40.7812L131.78 41.4799L145.843 3.76117L143.969 3.0625L142.095 2.36383L128.032 40.0826L129.906 40.7812ZM143.969 3.0625L144.005 5.06217L154.255 4.87467L154.219 2.875L154.182 0.875335L143.932 1.06283L143.969 3.0625ZM154.219 2.875L152.339 3.55699L166.089 41.4632L167.969 40.7812L169.849 40.0993L156.099 2.19301L154.219 2.875ZM167.969 40.7812L167.233 42.6409L171.733 44.4221L172.469 42.5625L173.205 40.7029L168.705 38.9216L167.969 40.7812ZM172.469 42.5625H170.469V48H172.469H174.469V42.5625H172.469ZM148.469 14.1562L146.572 13.5226L141.509 28.6789L143.406 29.3125L145.303 29.9461L150.366 14.7899L148.469 14.1562ZM143.406 29.3125V31.3125H153.25V29.3125V27.3125H143.406V29.3125ZM153.25 29.3125L155.157 28.7108L150.376 13.5546L148.469 14.1562L146.561 14.7579L151.343 29.9142L153.25 29.3125ZM183.125 10.5625H185.125V8.5625H183.125V10.5625ZM177.031 10.5625V8.5625H175.489L175.097 10.054L177.031 10.5625ZM175.438 16.625V18.625H176.98L177.372 17.1335L175.438 16.625ZM169.531 16.625H167.531V18.625H169.531V16.625ZM169.531 2.875V0.875H167.531V2.875H169.531ZM206.656 2.875H208.656V0.875H206.656V2.875ZM206.656 16.625V18.625H208.656V16.625H206.656ZM200.719 16.625L198.784 17.1335L199.177 18.625H200.719V16.625ZM199.125 10.5625L201.059 10.054L200.667 8.5625H199.125V10.5625ZM193.031 10.5625V8.5625H191.031V10.5625H193.031ZM193.031 40.625H191.031V42.0878L192.425 42.531L193.031 40.625ZM199.125 42.5625H201.125V41.0997L199.731 40.6565L199.125 42.5625ZM199.125 48V50H201.125V48H199.125ZM177.031 48H175.031V50H177.031V48ZM177.031 42.5625L176.425 40.6565L175.031 41.0997V42.5625H177.031ZM183.125 40.625L183.731 42.531L185.125 42.0878V40.625H183.125ZM183.125 10.5625V8.5625H177.031V10.5625V12.5625H183.125V10.5625ZM177.031 10.5625L175.097 10.054L173.503 16.1165L175.438 16.625L177.372 17.1335L178.966 11.071L177.031 10.5625ZM175.438 16.625V14.625H169.531V16.625V18.625H175.438V16.625ZM169.531 16.625H171.531V2.875H169.531H167.531V16.625H169.531ZM169.531 2.875V4.875H206.656V2.875V0.875H169.531V2.875ZM206.656 2.875H204.656V16.625H206.656H208.656V2.875H206.656ZM206.656 16.625V14.625H200.719V16.625V18.625H206.656V16.625ZM200.719 16.625L202.653 16.1165L201.059 10.054L199.125 10.5625L197.191 11.071L198.784 17.1335L200.719 16.625ZM199.125 10.5625V8.5625H193.031V10.5625V12.5625H199.125V10.5625ZM193.031 10.5625H191.031V40.625H193.031H195.031V10.5625H193.031ZM193.031 40.625L192.425 42.531L198.519 44.4685L199.125 42.5625L199.731 40.6565L193.637 38.719L193.031 40.625ZM199.125 42.5625H197.125V48H199.125H201.125V42.5625H199.125ZM199.125 48V46H177.031V48V50H199.125V48ZM177.031 48H179.031V42.5625H177.031H175.031V48H177.031ZM177.031 42.5625L177.637 44.4685L183.731 42.531L183.125 40.625L182.519 38.719L176.425 40.6565L177.031 42.5625ZM183.125 40.625H185.125V10.5625H183.125H181.125V40.625H183.125ZM237.281 11.125L239.227 10.6609L238.945 9.47932L237.766 9.18471L237.281 11.125ZM222.281 14.0312L223.918 15.18L223.923 15.1738L222.281 14.0312ZM222.375 36.9375L220.8 38.1701L220.805 38.1768L222.375 36.9375ZM235.969 39.5312L236.64 41.4152L236.65 41.4118L236.659 41.4083L235.969 39.5312ZM240.625 37.3438L239.592 35.6312L239.586 35.6348L239.58 35.6385L240.625 37.3438ZM242.594 36.0312L244.298 34.9846L240.594 28.9529V36.0312H242.594ZM246.125 41.7812H248.125V41.2161L247.829 40.7346L246.125 41.7812ZM243.688 43.8438L244.894 45.4388L244.9 45.4339L244.907 45.429L243.688 43.8438ZM237.531 47.25L238.293 49.0994L238.299 49.0966L238.306 49.0939L237.531 47.25ZM214.219 43L212.746 44.3536L212.75 44.3575L214.219 43ZM211.531 13.2812L209.736 12.3993L211.531 13.2812ZM219.031 5L218.015 3.27726L218.01 3.28014L219.031 5ZM237.188 2.8125L236.777 4.76999L236.786 4.77187L236.795 4.77366L237.188 2.8125ZM242.906 4.28125L242.274 6.17862L242.285 6.18228L242.296 6.18581L242.906 4.28125ZM245.344 5.125L247.343 5.1764L247.344 5.1507V5.125H245.344ZM245.031 17.2812V19.2812H246.98L247.031 17.3326L245.031 17.2812ZM238.75 17.2812L236.805 17.7454L237.171 19.2812H238.75V17.2812ZM237.281 11.125L237.766 9.18471C237.618 9.14766 237.239 9.04803 236.609 8.88003L236.094 10.8125L235.578 12.745C236.198 12.9103 236.611 13.019 236.796 13.0653L237.281 11.125ZM236.094 10.8125L236.609 8.88003C235.869 8.68274 234.933 8.51314 233.834 8.36233L233.562 10.3438L233.291 12.3252C234.317 12.466 235.068 12.6089 235.578 12.745L236.094 10.8125ZM233.562 10.3438L233.834 8.36233C232.67 8.20249 231.432 8.125 230.125 8.125V10.125V12.125C231.276 12.125 232.33 12.1933 233.291 12.3252L233.562 10.3438ZM230.125 10.125V8.125C226.113 8.125 222.859 9.70051 220.64 12.8887L222.281 14.0312L223.923 15.1738C225.329 13.1537 227.304 12.125 230.125 12.125V10.125ZM222.281 14.0312L220.644 12.8826C218.485 15.9596 217.562 20.3668 217.562 25.7812H219.562H221.562C221.562 20.6957 222.452 17.2695 223.918 15.1799L222.281 14.0312ZM219.562 25.7812H217.562C217.562 31.0005 218.52 35.257 220.8 38.1701L222.375 36.9375L223.95 35.7049C222.48 33.8264 221.562 30.6454 221.562 25.7812H219.562ZM222.375 36.9375L220.805 38.1768C223.122 41.1111 226.433 42.5 230.438 42.5V40.5V38.5C227.442 38.5 225.378 37.5139 223.945 35.6982L222.375 36.9375ZM230.438 40.5V42.5C232.547 42.5 234.618 42.1358 236.64 41.4152L235.969 39.5312L235.297 37.6473C233.695 38.2184 232.078 38.5 230.438 38.5V40.5ZM235.969 39.5312L236.659 41.4083C238.563 40.7079 240.24 39.9252 241.67 39.049L240.625 37.3438L239.58 35.6385C238.426 36.3457 236.999 37.0213 235.278 37.6542L235.969 39.5312ZM240.625 37.3438L241.658 39.0563C242.321 38.6565 242.844 38.3305 243.211 38.086C243.388 37.9676 243.566 37.844 243.714 37.7267C243.782 37.6731 243.895 37.5798 244.01 37.4601C244.064 37.4027 244.167 37.2899 244.268 37.1325C244.334 37.0299 244.594 36.6222 244.594 36.0312H242.594H240.594C240.594 35.7145 240.669 35.4656 240.728 35.3152C240.788 35.16 240.857 35.0426 240.904 34.9695C240.995 34.8281 241.082 34.7341 241.116 34.6982C241.19 34.6214 241.242 34.5821 241.227 34.5936C241.211 34.6065 241.143 34.6574 240.992 34.7578C240.703 34.9508 240.242 35.2393 239.592 35.6312L240.625 37.3438ZM242.594 36.0312L240.889 37.0779L244.421 42.8279L246.125 41.7812L247.829 40.7346L244.298 34.9846L242.594 36.0312ZM246.125 41.7812H244.125C244.125 41.3087 244.296 40.9751 244.341 40.8886C244.408 40.7601 244.473 40.6729 244.498 40.6396C244.551 40.5703 244.584 40.5405 244.558 40.5663C244.516 40.6087 244.414 40.7032 244.224 40.8639C243.854 41.1769 243.274 41.6385 242.468 42.2585L243.688 43.8438L244.907 45.429C245.726 44.799 246.365 44.2919 246.808 43.9174C247.024 43.7343 247.226 43.5554 247.387 43.3947C247.463 43.3189 247.572 43.2051 247.676 43.0694C247.726 43.0029 247.81 42.8869 247.89 42.734C247.948 42.6231 248.125 42.2694 248.125 41.7812H246.125ZM243.688 43.8438L242.481 42.2487C241.024 43.3511 239.128 44.4098 236.757 45.4061L237.531 47.25L238.306 49.0939C240.893 48.0068 243.101 46.7947 244.894 45.4388L243.688 43.8438ZM237.531 47.25L236.77 45.4006C234.558 46.3115 232.091 46.7812 229.344 46.7812V48.7812V50.7812C232.555 50.7812 235.547 50.2302 238.293 49.0994L237.531 47.25ZM229.344 48.7812V46.7812C223.236 46.7812 218.783 44.9915 215.687 41.6425L214.219 43L212.75 44.3575C216.779 48.7168 222.41 50.7812 229.344 50.7812V48.7812ZM214.219 43L215.691 41.6464C212.583 38.266 210.875 33.2001 210.875 26.125H208.875H206.875C206.875 33.7999 208.729 39.984 212.746 44.3536L214.219 43ZM208.875 26.125H210.875C210.875 21.4021 211.718 17.4361 213.326 14.1632L211.531 13.2812L209.736 12.3993C207.803 16.3347 206.875 20.9312 206.875 26.125H208.875ZM211.531 13.2812L213.326 14.1632C214.938 10.8823 217.18 8.42438 220.052 6.71986L219.031 5L218.01 3.28014C214.424 5.40895 211.666 8.47192 209.736 12.3993L211.531 13.2812ZM219.031 5L220.047 6.72273C222.945 5.01401 226.385 4.125 230.438 4.125V2.125V0.125C225.782 0.125 221.618 1.15266 218.015 3.27727L219.031 5ZM230.438 2.125V4.125C232.617 4.125 234.729 4.34089 236.777 4.76999L237.188 2.8125L237.598 0.855006C235.271 0.367448 232.883 0.125 230.438 0.125V2.125ZM237.188 2.8125L236.795 4.77366C238.924 5.19946 240.747 5.66963 242.274 6.17862L242.906 4.28125L243.539 2.38388C241.816 1.80954 239.826 1.30054 237.58 0.851339L237.188 2.8125ZM242.906 4.28125L242.296 6.18581C243.105 6.44515 243.696 6.63997 244.08 6.77278C244.276 6.84072 244.394 6.8842 244.453 6.90742C244.489 6.922 244.464 6.91332 244.411 6.887C244.395 6.87869 244.299 6.83129 244.182 6.7489C244.129 6.71155 243.994 6.6138 243.852 6.45548C243.779 6.37362 243.667 6.23506 243.566 6.04076C243.466 5.84702 243.344 5.53098 243.344 5.125H245.344H247.344C247.344 4.35987 246.918 3.88333 246.831 3.7853C246.685 3.62344 246.546 3.52169 246.487 3.47986C246.357 3.38851 246.242 3.33029 246.2 3.30929C246.097 3.25757 245.995 3.21602 245.93 3.19024C245.785 3.13272 245.599 3.06553 245.389 2.99284C244.96 2.84441 244.333 2.63819 243.517 2.37669L242.906 4.28125ZM245.344 5.125L243.344 5.0736L243.032 17.2299L245.031 17.2812L247.031 17.3326L247.343 5.1764L245.344 5.125ZM245.031 17.2812V15.2812H238.75V17.2812V19.2812H245.031V17.2812ZM238.75 17.2812L240.695 16.8171L239.227 10.6609L237.281 11.125L235.336 11.5891L236.805 17.7454L238.75 17.2812ZM250.281 42.5625L249.53 40.7089L248.281 41.215V42.5625H250.281ZM255.062 40.625L255.814 42.4786L257.062 41.9725V40.625H255.062ZM255.062 10.5625H257.062V9.21499L255.814 8.70891L255.062 10.5625ZM250.281 8.625H248.281V9.97251L249.53 10.4786L250.281 8.625ZM250.281 3.1875L250.25 1.18775L248.281 1.21875V3.1875H250.281ZM270.125 2.875H272.125V0.843256L270.094 0.875248L270.125 2.875ZM270.125 8.625L270.832 10.4958L272.125 10.0071V8.625H270.125ZM265 10.5625L264.293 8.69172L263 9.18045V10.5625H265ZM265 20.8125H263V22.8125H265V20.8125ZM281.75 20.8125V22.8125H283.75V20.8125H281.75ZM281.75 10.5625H283.75V9.18045L282.457 8.69172L281.75 10.5625ZM276.625 8.625H274.625V10.0071L275.918 10.4958L276.625 8.625ZM276.625 3.1875L276.594 1.18775L274.625 1.21875V3.1875H276.625ZM296.469 2.875H298.469V0.843256L296.437 0.875248L296.469 2.875ZM296.469 8.625L297.22 10.4786L298.469 9.97251V8.625H296.469ZM291.688 10.5625L290.936 8.70891L289.688 9.21499V10.5625H291.688ZM291.688 40.625H289.688V41.9725L290.936 42.4786L291.688 40.625ZM296.469 42.5625H298.469V41.215L297.22 40.7089L296.469 42.5625ZM296.469 48V50H298.469V48H296.469ZM276.625 48H274.625V50H276.625V48ZM276.625 42.5625L275.918 40.6917L274.625 41.1804V42.5625H276.625ZM281.75 40.625L282.457 42.4958L283.75 42.0071V40.625H281.75ZM281.75 28.4688H283.75V26.4688H281.75V28.4688ZM265 28.4688V26.4688H263V28.4688H265ZM265 40.625H263V42.0071L264.293 42.4958L265 40.625ZM270.125 42.5625H272.125V41.1804L270.832 40.6917L270.125 42.5625ZM270.125 48V50H272.125V48H270.125ZM250.281 48H248.281V50H250.281V48ZM250.281 42.5625L251.032 44.4161L255.814 42.4786L255.062 40.625L254.311 38.7714L249.53 40.7089L250.281 42.5625ZM255.062 40.625H257.062V10.5625H255.062H253.062V40.625H255.062ZM255.062 10.5625L255.814 8.70891L251.032 6.77141L250.281 8.625L249.53 10.4786L254.311 12.4161L255.062 10.5625ZM250.281 8.625H252.281V3.1875H250.281H248.281V8.625H250.281ZM250.281 3.1875L250.313 5.18725L270.156 4.87475L270.125 2.875L270.094 0.875248L250.25 1.18775L250.281 3.1875ZM270.125 2.875H268.125V8.625H270.125H272.125V2.875H270.125ZM270.125 8.625L269.418 6.75422L264.293 8.69172L265 10.5625L265.707 12.4333L270.832 10.4958L270.125 8.625ZM265 10.5625H263V20.8125H265H267V10.5625H265ZM265 20.8125V22.8125H281.75V20.8125V18.8125H265V20.8125ZM281.75 20.8125H283.75V10.5625H281.75H279.75V20.8125H281.75ZM281.75 10.5625L282.457 8.69172L277.332 6.75422L276.625 8.625L275.918 10.4958L281.043 12.4333L281.75 10.5625ZM276.625 8.625H278.625V3.1875H276.625H274.625V8.625H276.625ZM276.625 3.1875L276.656 5.18725L296.5 4.87475L296.469 2.875L296.437 0.875248L276.594 1.18775L276.625 3.1875ZM296.469 2.875H294.469V8.625H296.469H298.469V2.875H296.469ZM296.469 8.625L295.718 6.77141L290.936 8.70891L291.688 10.5625L292.439 12.4161L297.22 10.4786L296.469 8.625ZM291.688 10.5625H289.688V40.625H291.688H293.688V10.5625H291.688ZM291.688 40.625L290.936 42.4786L295.718 44.4161L296.469 42.5625L297.22 40.7089L292.439 38.7714L291.688 40.625ZM296.469 42.5625H294.469V48H296.469H298.469V42.5625H296.469ZM296.469 48V46H276.625V48V50H296.469V48ZM276.625 48H278.625V42.5625H276.625H274.625V48H276.625ZM276.625 42.5625L277.332 44.4333L282.457 42.4958L281.75 40.625L281.043 38.7542L275.918 40.6917L276.625 42.5625ZM281.75 40.625H283.75V28.4688H281.75H279.75V40.625H281.75ZM281.75 28.4688V26.4688H265V28.4688V30.4688H281.75V28.4688ZM265 28.4688H263V40.625H265H267V28.4688H265ZM265 40.625L264.293 42.4958L269.418 44.4333L270.125 42.5625L270.832 40.6917L265.707 38.7542L265 40.625ZM270.125 42.5625H268.125V48H270.125H272.125V42.5625H270.125ZM270.125 48V46H250.281V48V50H270.125V48ZM250.281 48H252.281V42.5625H250.281H248.281V48H250.281Z"
		fill="white" mask="url(#path-1-outside-1_10_328)" />
	<mask id="path-3-outside-2_10_328" maskUnits="userSpaceOnUse" x="92" y="58" width="116"
		height="30" fill="black">
		<rect fill="white" x="92" y="58" width="116" height="30" />
		<path
			d="M107.398 66.7983C107.228 66.1335 107.035 65.3296 106.817 64.3868C106.745 64.3626 106.57 64.3142 106.292 64.2417C106.014 64.1692 105.627 64.0967 105.131 64.0241C104.648 63.9395 104.092 63.8972 103.463 63.8972C102.327 63.8972 101.456 64.1873 100.852 64.7675C100.248 65.3357 99.9455 66.0247 99.9455 66.8346C99.9455 67.8983 100.356 68.7324 101.178 69.3368C102.013 69.9291 103.022 70.2252 104.206 70.2252H115.611V73.3802L113.019 74.2324V78.167C113.019 80.7417 112.118 82.7665 110.317 84.2412C108.528 85.7159 106.098 86.4533 103.028 86.4533C99.8851 86.4533 97.534 85.7824 95.9746 84.4407C94.4153 83.0989 93.6356 81.2917 93.6356 79.0192C93.6356 77.3148 94.1735 75.9005 95.2493 74.7763C96.3252 73.6401 97.3587 72.8241 98.3499 72.3285C97.6367 71.8813 97.0323 71.4703 96.5367 71.0956C96.0532 70.7088 95.5757 70.1225 95.1043 69.3368C94.6449 68.539 94.4153 67.584 94.4153 66.4719C94.4153 64.1752 95.2493 62.4225 96.9175 61.2137C98.5856 59.9928 100.87 59.3824 103.771 59.3824C105.053 59.3824 106.437 59.5697 107.924 59.9444C109.41 60.3071 110.462 60.6395 111.078 60.9417L110.897 66.7983H107.398ZM104.841 74.2324C103.233 74.2324 101.922 74.5648 100.906 75.2296C99.8911 75.8945 99.3834 76.8978 99.3834 78.2395C99.3834 79.4 99.74 80.3066 100.453 80.9593C101.178 81.6 102.158 81.9203 103.391 81.9203C104.708 81.9203 105.742 81.5516 106.491 80.8143C107.253 80.0648 107.633 79.0071 107.633 77.6412V74.2324H104.841ZM125.638 59.9988L136.663 59.8175V63.1538L133.961 64.278L137.152 77.6412L142.356 60.1258L147.36 59.8175L152.347 77.6049L155.901 64.278L153.126 63.1538V59.9988L163.697 59.8175V63.1538L161.032 64.278L154.686 86H149.409L144.55 68.3577L143.662 71.8934L139.382 86H134.251L128.249 64.2417L125.638 63.1538V59.9988ZM165.384 82.845L168.176 81.7209V64.278L165.384 63.1538V59.9988L176.716 59.8175V63.1538L173.924 64.278V81.7209L176.716 82.845V86H165.384V82.845ZM179.49 82.845L182.264 81.7209V64.278L179.49 63.1538V59.9988L188.393 59.8175L198.42 76.9703V64.278L195.718 63.1538V59.9988L206.289 59.8175V63.1538L203.515 64.278V86H197.314L187.359 69.1736V81.7209L190.261 82.845V86H179.49V82.845Z" />
	</mask>
	<path
		d="M107.398 66.7983C107.228 66.1335 107.035 65.3296 106.817 64.3868C106.745 64.3626 106.57 64.3142 106.292 64.2417C106.014 64.1692 105.627 64.0967 105.131 64.0241C104.648 63.9395 104.092 63.8972 103.463 63.8972C102.327 63.8972 101.456 64.1873 100.852 64.7675C100.248 65.3357 99.9455 66.0247 99.9455 66.8346C99.9455 67.8983 100.356 68.7324 101.178 69.3368C102.013 69.9291 103.022 70.2252 104.206 70.2252H115.611V73.3802L113.019 74.2324V78.167C113.019 80.7417 112.118 82.7665 110.317 84.2412C108.528 85.7159 106.098 86.4533 103.028 86.4533C99.8851 86.4533 97.534 85.7824 95.9746 84.4407C94.4153 83.0989 93.6356 81.2917 93.6356 79.0192C93.6356 77.3148 94.1735 75.9005 95.2493 74.7763C96.3252 73.6401 97.3587 72.8241 98.3499 72.3285C97.6367 71.8813 97.0323 71.4703 96.5367 71.0956C96.0532 70.7088 95.5757 70.1225 95.1043 69.3368C94.6449 68.539 94.4153 67.584 94.4153 66.4719C94.4153 64.1752 95.2493 62.4225 96.9175 61.2137C98.5856 59.9928 100.87 59.3824 103.771 59.3824C105.053 59.3824 106.437 59.5697 107.924 59.9444C109.41 60.3071 110.462 60.6395 111.078 60.9417L110.897 66.7983H107.398ZM104.841 74.2324C103.233 74.2324 101.922 74.5648 100.906 75.2296C99.8911 75.8945 99.3834 76.8978 99.3834 78.2395C99.3834 79.4 99.74 80.3066 100.453 80.9593C101.178 81.6 102.158 81.9203 103.391 81.9203C104.708 81.9203 105.742 81.5516 106.491 80.8143C107.253 80.0648 107.633 79.0071 107.633 77.6412V74.2324H104.841ZM125.638 59.9988L136.663 59.8175V63.1538L133.961 64.278L137.152 77.6412L142.356 60.1258L147.36 59.8175L152.347 77.6049L155.901 64.278L153.126 63.1538V59.9988L163.697 59.8175V63.1538L161.032 64.278L154.686 86H149.409L144.55 68.3577L143.662 71.8934L139.382 86H134.251L128.249 64.2417L125.638 63.1538V59.9988ZM165.384 82.845L168.176 81.7209V64.278L165.384 63.1538V59.9988L176.716 59.8175V63.1538L173.924 64.278V81.7209L176.716 82.845V86H165.384V82.845ZM179.49 82.845L182.264 81.7209V64.278L179.49 63.1538V59.9988L188.393 59.8175L198.42 76.9703V64.278L195.718 63.1538V59.9988L206.289 59.8175V63.1538L203.515 64.278V86H197.314L187.359 69.1736V81.7209L190.261 82.845V86H179.49V82.845Z"
		fill="url(#paint1_linear_10_328)" />
	<path
		d="M107.398 66.7983L106.089 67.1314L106.348 68.1486H107.398V66.7983ZM106.817 64.3868L108.133 64.0831L107.963 63.3452L107.244 63.1057L106.817 64.3868ZM105.131 64.0241L104.898 65.3542L104.917 65.3575L104.936 65.3602L105.131 64.0241ZM100.852 64.7675L101.777 65.7514L101.782 65.7466L101.787 65.7416L100.852 64.7675ZM101.178 69.3368L100.379 70.4247L100.388 70.4313L100.397 70.4377L101.178 69.3368ZM115.611 70.2252H116.962V68.8749H115.611V70.2252ZM115.611 73.3802L116.033 74.663L116.962 74.3578V73.3802H115.611ZM113.019 74.2324L112.597 72.9496L111.668 73.2548V74.2324H113.019ZM110.317 84.2412L109.461 83.1964L109.458 83.1992L110.317 84.2412ZM95.2493 74.7763L96.2249 75.71L96.2299 75.7047L95.2493 74.7763ZM98.3499 72.3285L98.9538 73.5363L101.103 72.4615L99.0673 71.1846L98.3499 72.3285ZM96.5367 71.0956L95.6932 72.15L95.7076 72.1615L95.7223 72.1727L96.5367 71.0956ZM95.1043 69.3368L93.934 70.0105L93.9401 70.0211L93.9464 70.0315L95.1043 69.3368ZM96.9175 61.2137L97.7098 62.3071L97.715 62.3033L96.9175 61.2137ZM107.924 59.9444L107.594 61.2539L107.604 61.2563L107.924 59.9444ZM111.078 60.9417L112.428 60.9835L112.455 60.1127L111.673 59.7292L111.078 60.9417ZM110.897 66.7983V68.1486H112.206L112.247 66.8401L110.897 66.7983ZM100.453 80.9593L99.5415 81.9554L99.5503 81.9635L99.5592 81.9714L100.453 80.9593ZM106.491 80.8143L107.438 81.7768L107.438 81.7767L106.491 80.8143ZM107.633 74.2324H108.984V72.8821H107.633V74.2324ZM107.398 66.7983L108.706 66.4652C108.54 65.8132 108.349 65.0198 108.133 64.0831L106.817 64.3868L105.502 64.6904C105.721 65.6395 105.917 66.4537 106.089 67.1314L107.398 66.7983ZM106.817 64.3868L107.244 63.1057C107.12 63.0643 106.896 63.0039 106.633 62.9351L106.292 64.2417L105.951 65.5483C106.087 65.5838 106.193 65.6122 106.273 65.6341C106.36 65.6581 106.391 65.6681 106.39 65.6678L106.817 64.3868ZM106.292 64.2417L106.633 62.9351C106.284 62.8442 105.841 62.7633 105.327 62.688L105.131 64.0241L104.936 65.3602C105.413 65.43 105.743 65.4941 105.951 65.5483L106.292 64.2417ZM105.131 64.0241L105.364 62.694C104.786 62.5928 104.149 62.5469 103.463 62.5469V63.8972V65.2475C104.034 65.2475 104.51 65.2862 104.898 65.3542L105.131 64.0241ZM103.463 63.8972V62.5469C102.105 62.5469 100.851 62.8964 99.9169 63.7934L100.852 64.7675L101.787 65.7416C102.062 65.4783 102.549 65.2475 103.463 65.2475V63.8972ZM100.852 64.7675L99.9272 63.7836C99.0588 64.6 98.5952 65.642 98.5952 66.8346H99.9455H101.296C101.296 66.4074 101.437 66.0713 101.777 65.7514L100.852 64.7675ZM99.9455 66.8346H98.5952C98.5952 68.3063 99.1935 69.5533 100.379 70.4247L101.178 69.3368L101.978 68.2489C101.519 67.9114 101.296 67.4903 101.296 66.8346H99.9455ZM101.178 69.3368L100.397 70.4377C101.494 71.2169 102.787 71.5756 104.206 71.5756V70.2252V68.8749C103.256 68.8749 102.531 68.6413 101.96 68.2358L101.178 69.3368ZM104.206 70.2252V71.5756H115.611V70.2252V68.8749H104.206V70.2252ZM115.611 70.2252H114.261V73.3802H115.611H116.962V70.2252H115.611ZM115.611 73.3802L115.19 72.0974L112.597 72.9496L113.019 74.2324L113.44 75.5152L116.033 74.663L115.611 73.3802ZM113.019 74.2324H111.668V78.167H113.019H114.369V74.2324H113.019ZM113.019 78.167H111.668C111.668 80.3856 110.914 82.0075 109.461 83.1964L110.317 84.2412L111.172 85.286C113.323 83.5255 114.369 81.0979 114.369 78.167H113.019ZM110.317 84.2412L109.458 83.1992C107.98 84.418 105.887 85.103 103.028 85.103V86.4533V87.8036C106.309 87.8036 109.076 87.0139 111.176 85.2832L110.317 84.2412ZM103.028 86.4533V85.103C100.045 85.103 98.069 84.4614 96.8553 83.4171L95.9746 84.4407L95.0939 85.4642C96.9989 87.1035 99.7256 87.8036 103.028 87.8036V86.4533ZM95.9746 84.4407L96.8553 83.4171C95.6275 82.3606 94.9859 80.9448 94.9859 79.0192H93.6356H92.2853C92.2853 81.6387 93.203 83.8372 95.0939 85.4642L95.9746 84.4407ZM93.6356 79.0192H94.9859C94.9859 77.6264 95.4135 76.5578 96.2249 75.71L95.2493 74.7763L94.2738 73.8427C92.9335 75.2432 92.2853 77.0032 92.2853 79.0192H93.6356ZM95.2493 74.7763L96.2299 75.7047C97.2385 74.6395 98.1485 73.939 98.9538 73.5363L98.3499 72.3285L97.746 71.1208C96.5689 71.7093 95.4118 72.6407 94.2688 73.848L95.2493 74.7763ZM98.3499 72.3285L99.0673 71.1846C98.3766 70.7514 97.8066 70.3629 97.3511 70.0185L96.5367 71.0956L95.7223 72.1727C96.258 72.5777 96.8968 73.0112 97.6325 73.4725L98.3499 72.3285ZM96.5367 71.0956L97.3802 70.0411C97.0669 69.7905 96.6869 69.3499 96.2622 68.642L95.1043 69.3368L93.9464 70.0315C94.4645 70.8951 95.0395 71.6271 95.6932 72.15L96.5367 71.0956ZM95.1043 69.3368L96.2745 68.663C95.9555 68.1089 95.7656 67.3967 95.7656 66.4719H94.4153H93.0649C93.0649 67.7714 93.3344 68.9691 93.934 70.0105L95.1043 69.3368ZM94.4153 66.4719H95.7656C95.7656 64.5505 96.4363 63.23 97.7098 62.3071L96.9175 61.2137L96.1251 60.1203C94.0624 61.615 93.0649 63.7999 93.0649 66.4719H94.4153ZM96.9175 61.2137L97.715 62.3033C99.075 61.308 101.045 60.7327 103.771 60.7327V59.3824V58.032C100.696 58.032 98.0962 58.6776 96.12 60.124L96.9175 61.2137ZM103.771 59.3824V60.7327C104.922 60.7327 106.194 60.9012 107.594 61.2538L107.924 59.9444L108.254 58.6351C106.679 58.2383 105.183 58.032 103.771 58.032V59.3824ZM107.924 59.9444L107.604 61.2563C109.082 61.617 110.01 61.9216 110.484 62.1542L111.078 60.9417L111.673 59.7292C110.914 59.3574 109.739 58.9972 108.244 58.6326L107.924 59.9444ZM111.078 60.9417L109.729 60.8999L109.547 66.7565L110.897 66.7983L112.247 66.8401L112.428 60.9835L111.078 60.9417ZM110.897 66.7983V65.448H107.398V66.7983V68.1486H110.897V66.7983ZM104.841 74.2324V72.8821C103.054 72.8821 101.463 73.2513 100.167 74.0999L100.906 75.2296L101.646 76.3594C102.381 75.8783 103.413 75.5827 104.841 75.5827V74.2324ZM100.906 75.2296L100.167 74.0999C98.7252 75.0439 98.0331 76.4991 98.0331 78.2395H99.3834H100.734C100.734 77.2964 101.057 76.7451 101.646 76.3594L100.906 75.2296ZM99.3834 78.2395H98.0331C98.0331 79.6965 98.4934 80.9961 99.5415 81.9554L100.453 80.9593L101.365 79.9632C100.987 79.6171 100.734 79.1035 100.734 78.2395H99.3834ZM100.453 80.9593L99.5592 81.9714C100.593 82.8846 101.921 83.2707 103.391 83.2707V81.9203V80.57C102.394 80.57 101.764 80.3154 101.347 79.9473L100.453 80.9593ZM103.391 81.9203V83.2707C104.968 83.2707 106.376 82.8219 107.438 81.7768L106.491 80.8143L105.544 79.8517C105.107 80.2814 104.448 80.57 103.391 80.57V81.9203ZM106.491 80.8143L107.438 81.7767C108.525 80.7077 108.984 79.2631 108.984 77.6412H107.633H106.283C106.283 78.7511 105.981 79.4219 105.544 79.8518L106.491 80.8143ZM107.633 77.6412H108.984V74.2324H107.633H106.283V77.6412H107.633ZM107.633 74.2324V72.8821H104.841V74.2324V75.5827H107.633V74.2324ZM125.638 59.9988L125.616 58.6487L124.288 58.6705V59.9988H125.638ZM136.663 59.8175H138.013V58.4448L136.64 58.4674L136.663 59.8175ZM136.663 63.1538L137.181 64.4005L138.013 64.0545V63.1538H136.663ZM133.961 64.278L133.442 63.0313L132.38 63.4731L132.648 64.5916L133.961 64.278ZM137.152 77.6412L135.839 77.9548L137.01 82.8603L138.447 78.0258L137.152 77.6412ZM142.356 60.1258L142.273 58.778L141.331 58.836L141.062 59.7412L142.356 60.1258ZM147.36 59.8175L148.661 59.453L148.366 58.4027L147.277 58.4697L147.36 59.8175ZM152.347 77.6049L151.046 77.9694L152.379 82.7236L153.651 77.9529L152.347 77.6049ZM155.901 64.278L157.205 64.6259L157.512 63.4742L156.408 63.0265L155.901 64.278ZM153.126 63.1538H151.776V64.0636L152.619 64.4053L153.126 63.1538ZM153.126 59.9988L153.103 58.6487L151.776 58.6715V59.9988H153.126ZM163.697 59.8175H165.048V58.4438L163.674 58.4674L163.697 59.8175ZM163.697 63.1538L164.222 64.398L165.048 64.0498V63.1538H163.697ZM161.032 64.278L160.507 63.0338L159.916 63.2832L159.736 63.8993L161.032 64.278ZM154.686 86V87.3503H155.698L155.982 86.3787L154.686 86ZM149.409 86L148.107 86.3586L148.381 87.3503H149.409V86ZM144.55 68.3577L145.852 67.9991L144.49 63.0551L143.24 68.0286L144.55 68.3577ZM143.662 71.8934L144.954 72.2854L144.963 72.2541L144.971 72.2225L143.662 71.8934ZM139.382 86V87.3503H140.384L140.675 86.392L139.382 86ZM134.251 86L132.949 86.3591L133.223 87.3503H134.251V86ZM128.249 64.2417L129.551 63.8827L129.376 63.2483L128.769 62.9952L128.249 64.2417ZM125.638 63.1538H124.288V64.054L125.119 64.4003L125.638 63.1538ZM125.638 59.9988L125.661 61.349L136.685 61.1677L136.663 59.8175L136.64 58.4674L125.616 58.6487L125.638 59.9988ZM136.663 59.8175H135.312V63.1538H136.663H138.013V59.8175H136.663ZM136.663 63.1538L136.144 61.9071L133.442 63.0313L133.961 64.278L134.48 65.5247L137.181 64.4005L136.663 63.1538ZM133.961 64.278L132.648 64.5916L135.839 77.9548L137.152 77.6412L138.466 77.3275L135.274 63.9643L133.961 64.278ZM137.152 77.6412L138.447 78.0258L143.65 60.5103L142.356 60.1258L141.062 59.7412L135.858 77.2566L137.152 77.6412ZM142.356 60.1258L142.439 61.4735L147.443 61.1653L147.36 59.8175L147.277 58.4697L142.273 58.778L142.356 60.1258ZM147.36 59.8175L146.06 60.182L151.046 77.9694L152.347 77.6049L153.647 77.2404L148.661 59.453L147.36 59.8175ZM152.347 77.6049L153.651 77.9529L157.205 64.6259L155.901 64.278L154.596 63.93L151.042 77.257L152.347 77.6049ZM155.901 64.278L156.408 63.0265L153.634 61.9023L153.126 63.1538L152.619 64.4053L155.393 65.5295L155.901 64.278ZM153.126 63.1538H154.477V59.9988H153.126H151.776V63.1538H153.126ZM153.126 59.9988L153.15 61.349L163.72 61.1677L163.697 59.8175L163.674 58.4674L153.103 58.6487L153.126 59.9988ZM163.697 59.8175H162.347V63.1538H163.697H165.048V59.8175H163.697ZM163.697 63.1538L163.173 61.9096L160.507 63.0338L161.032 64.278L161.557 65.5222L164.222 64.398L163.697 63.1538ZM161.032 64.278L159.736 63.8993L153.39 85.6213L154.686 86L155.982 86.3787L162.328 64.6566L161.032 64.278ZM154.686 86V84.6497H149.409V86V87.3503H154.686V86ZM149.409 86L150.711 85.6414L145.852 67.9991L144.55 68.3577L143.248 68.7162L148.107 86.3586L149.409 86ZM144.55 68.3577L143.24 68.0286L142.352 71.5643L143.662 71.8934L144.971 72.2225L145.86 68.6867L144.55 68.3577ZM143.662 71.8934L142.369 71.5014L138.09 85.608L139.382 86L140.675 86.392L144.954 72.2854L143.662 71.8934ZM139.382 86V84.6497H134.251V86V87.3503H139.382V86ZM134.251 86L135.553 85.6409L129.551 63.8827L128.249 64.2417L126.948 64.6008L132.949 86.3591L134.251 86ZM128.249 64.2417L128.769 62.9952L126.158 61.9073L125.638 63.1538L125.119 64.4003L127.73 65.4882L128.249 64.2417ZM125.638 63.1538H126.989V59.9988H125.638H124.288V63.1538H125.638ZM165.384 82.845L164.879 81.5924L164.033 81.933V82.845H165.384ZM168.176 81.7209L168.68 82.9735L169.526 82.6329V81.7209H168.176ZM168.176 64.278H169.526V63.366L168.68 63.0253L168.176 64.278ZM165.384 63.1538H164.033V64.0658L164.879 64.4064L165.384 63.1538ZM165.384 59.9988L165.362 58.6487L164.033 58.6699V59.9988H165.384ZM176.716 59.8175H178.066V58.4454L176.694 58.4674L176.716 59.8175ZM176.716 63.1538L177.22 64.4064L178.066 64.0658V63.1538H176.716ZM173.924 64.278L173.419 63.0253L172.573 63.366V64.278H173.924ZM173.924 81.7209H172.573V82.6329L173.419 82.9735L173.924 81.7209ZM176.716 82.845H178.066V81.933L177.22 81.5924L176.716 82.845ZM176.716 86V87.3503H178.066V86H176.716ZM165.384 86H164.033V87.3503H165.384V86ZM165.384 82.845L165.888 84.0977L168.68 82.9735L168.176 81.7209L167.672 80.4682L164.879 81.5924L165.384 82.845ZM168.176 81.7209H169.526V64.278H168.176H166.826V81.7209H168.176ZM168.176 64.278L168.68 63.0253L165.888 61.9012L165.384 63.1538L164.879 64.4064L167.672 65.5306L168.176 64.278ZM165.384 63.1538H166.734V59.9988H165.384H164.033V63.1538H165.384ZM165.384 59.9988L165.405 61.349L176.738 61.1677L176.716 59.8175L176.694 58.4674L165.362 58.6487L165.384 59.9988ZM176.716 59.8175H175.366V63.1538H176.716H178.066V59.8175H176.716ZM176.716 63.1538L176.212 61.9012L173.419 63.0253L173.924 64.278L174.428 65.5306L177.22 64.4064L176.716 63.1538ZM173.924 64.278H172.573V81.7209H173.924H175.274V64.278H173.924ZM173.924 81.7209L173.419 82.9735L176.212 84.0977L176.716 82.845L177.22 81.5924L174.428 80.4682L173.924 81.7209ZM176.716 82.845H175.366V86H176.716H178.066V82.845H176.716ZM176.716 86V84.6497H165.384V86V87.3503H176.716V86ZM165.384 86H166.734V82.845H165.384H164.033V86H165.384ZM179.49 82.845L178.983 81.5936L178.14 81.9353V82.845H179.49ZM182.264 81.7209L182.771 82.9724L183.615 82.6307V81.7209H182.264ZM182.264 64.278H183.615V63.3682L182.771 63.0265L182.264 64.278ZM179.49 63.1538H178.14V64.0636L178.983 64.4053L179.49 63.1538ZM179.49 59.9988L179.463 58.6488L178.14 58.6757V59.9988H179.49ZM188.393 59.8175L189.559 59.1361L189.158 58.4513L188.365 58.4675L188.393 59.8175ZM198.42 76.9703L197.254 77.6518L199.77 81.956V76.9703H198.42ZM198.42 64.278H199.77V63.3773L198.939 63.0313L198.42 64.278ZM195.718 63.1538H194.368V64.0545L195.199 64.4005L195.718 63.1538ZM195.718 59.9988L195.695 58.6487L194.368 58.6715V59.9988H195.718ZM206.289 59.8175H207.639V58.4438L206.266 58.4674L206.289 59.8175ZM206.289 63.1538L206.796 64.4053L207.639 64.0636V63.1538H206.289ZM203.515 64.278L203.008 63.0265L202.165 63.3682V64.278H203.515ZM203.515 86V87.3503H204.865V86H203.515ZM197.314 86L196.152 86.6875L196.544 87.3503H197.314V86ZM187.359 69.1736L188.522 68.486L186.009 64.239V69.1736H187.359ZM187.359 81.7209H186.009V82.6458L186.872 82.98L187.359 81.7209ZM190.261 82.845H191.611V81.9201L190.748 81.5859L190.261 82.845ZM190.261 86V87.3503H191.611V86H190.261ZM179.49 86H178.14V87.3503H179.49V86ZM179.49 82.845L179.997 84.0965L182.771 82.9724L182.264 81.7209L181.757 80.4694L178.983 81.5936L179.49 82.845ZM182.264 81.7209H183.615V64.278H182.264H180.914V81.7209H182.264ZM182.264 64.278L182.771 63.0265L179.997 61.9023L179.49 63.1538L178.983 64.4053L181.757 65.5295L182.264 64.278ZM179.49 63.1538H180.84V59.9988H179.49H178.14V63.1538H179.49ZM179.49 59.9988L179.518 61.3489L188.42 61.1676L188.393 59.8175L188.365 58.4675L179.463 58.6488L179.49 59.9988ZM188.393 59.8175L187.227 60.499L197.254 77.6518L198.42 76.9703L199.586 76.2888L189.559 59.1361L188.393 59.8175ZM198.42 76.9703H199.77V64.278H198.42H197.07V76.9703H198.42ZM198.42 64.278L198.939 63.0313L196.237 61.9071L195.718 63.1538L195.199 64.4005L197.901 65.5247L198.42 64.278ZM195.718 63.1538H197.069V59.9988H195.718H194.368V63.1538H195.718ZM195.718 59.9988L195.741 61.349L206.312 61.1677L206.289 59.8175L206.266 58.4674L195.695 58.6487L195.718 59.9988ZM206.289 59.8175H204.939V63.1538H206.289H207.639V59.8175H206.289ZM206.289 63.1538L205.782 61.9023L203.008 63.0265L203.515 64.278L204.022 65.5295L206.796 64.4053L206.289 63.1538ZM203.515 64.278H202.165V86H203.515H204.865V64.278H203.515ZM203.515 86V84.6497H197.314V86V87.3503H203.515V86ZM197.314 86L198.476 85.3125L188.522 68.486L187.359 69.1736L186.197 69.8611L196.152 86.6875L197.314 86ZM187.359 69.1736H186.009V81.7209H187.359H188.71V69.1736H187.359ZM187.359 81.7209L186.872 82.98L189.773 84.1042L190.261 82.845L190.748 81.5859L187.847 80.4618L187.359 81.7209ZM190.261 82.845H188.91V86H190.261H191.611V82.845H190.261ZM190.261 86V84.6497H179.49V86V87.3503H190.261V86ZM179.49 86H180.84V82.845H179.49H178.14V86H179.49Z"
		fill="white" mask="url(#path-3-outside-2_10_328)" />
	<defs>
		<linearGradient id="paint0_linear_10_328" x1="60.7344" y1="6.25862" x2="191.138" y2="120.704"
			gradientUnits="userSpaceOnUse">
			<stop stop-color="#FF0000" />
			<stop offset="0.910221" stop-color="#990000" />
		</linearGradient>
		<linearGradient id="paint1_linear_10_328" x1="60.7344" y1="61.8828" x2="130.533" y2="167.905"
			gradientUnits="userSpaceOnUse">
			<stop stop-color="#FF0000" />
			<stop offset="0.910221" stop-color="#990000" />
		</linearGradient>
	</defs>
</svg>